{"glyphs":{"0":{"x_min":45,"x_max":542,"ha":587,"o":"m 297 -15 l 297 -15 q 244 -15 202.5 2 q 161 19 131 50.5 q 101 82 82 126.5 q 63 171 54 225 q 45 279 45 341 l 45 341 q 45 401 54 454.5 q 63 508 82 552 q 101 596 130.5 628.5 q 160 661 201.5 678.5 q 243 696 295 696 l 295 696 q 347 696 387.5 678.5 q 428 661 457 628.5 q 486 596 505 552 q 524 508 533 454 q 542 400 542 340 l 542 340 q 542 279 533 225 q 524 171 505 127 q 486 83 457 51 q 428 19 388.5 2 q 349 -15 297 -15 m 293 76 l 293 76 q 340 76 370 96.5 q 400 117 417 149 q 434 181 441.5 216.5 q 449 252 450.5 284 q 452 316 452 335 l 452 335 l 452 341 q 452 425 434.5 484.5 q 417 544 382 575 q 347 606 294 606 l 294 606 q 241 606 205.5 575 q 170 544 152.5 485 q 135 426 135 340 l 135 340 q 135 256 152.5 197 q 170 138 205.5 107 q 241 76 293 76"},"1":{"x_min":42.94,"x_max":343,"ha":392,"o":"m 299 -11 l 299 -11 q 274 -11 264.5 -0.5 q 255 10 255 34 l 255 34 l 255 555 l 119 437 q 100 421 87 421.5 q 74 422 58 440 q 42 458 43 472.5 q 44 487 64 504 l 64 504 l 257 672 q 262 676 266 679 l 266 679 q 270 683 276 685 l 276 685 q 279 686 281 686 l 281 686 q 289 688 300 688 l 300 688 q 324 688 333.5 677.5 q 343 667 343 642 l 343 642 l 343 33 q 343 9 333.5 -1 q 324 -11 299 -11"},"2":{"x_min":46,"x_max":555,"ha":598,"o":"m 508 -3 l 90 -3 q 73 -3 59.5 11.5 q 46 26 46 44 l 46 44 q 46 58 46.5 72 q 47 86 53 100 q 59 114 76 126 l 76 126 q 131 166 183.5 200.5 q 236 235 281.5 267 q 327 299 361 331 q 395 363 414.5 397.5 q 434 432 434 473 l 434 473 q 434 514 417.5 543.5 q 401 573 368 589.5 q 335 606 286 606 l 286 606 q 250 606 222 595.5 q 194 585 175 565 q 156 545 146 516 q 136 487 136 450 l 136 450 q 136 435 133.5 425 q 131 415 121.5 410 q 112 405 90 405 l 90 405 q 68 405 58.5 412 q 49 419 47.5 431 q 46 443 46 458 l 46 458 q 46 510 62 553.5 q 78 597 109 629 q 140 661 184 678.5 q 228 696 285 696 l 285 696 q 358 696 411.5 669 q 465 642 495 590.5 q 525 539 525 464 l 525 464 q 525 430 515 399 q 505 368 485.5 339.5 q 466 311 439.5 284.5 q 413 258 379.5 232 q 346 206 307 179.5 q 268 153 225 126 l 225 126 l 162 88 l 510 88 q 524 88 534 85 q 544 82 549.5 72 q 555 62 555 42 l 555 42 q 555 23 549 13 q 543 3 533 0 q 523 -3 508 -3 l 508 -3"},"3":{"x_min":45,"x_max":542,"ha":587,"o":"m 293 -14 l 293 -14 q 241 -14 197 1.5 q 153 17 119.5 44.5 q 86 72 67 107 q 48 142 45 180 l 45 180 q 45 215 92 215 l 92 215 q 109 215 117 211 q 125 207 129 197.5 q 133 188 137 171 l 137 171 q 148 141 170 118.5 q 192 96 223.5 83.5 q 255 71 294 71 l 294 71 q 341 71 376.5 88 q 412 105 432 134.5 q 452 164 452 201 l 452 201 q 452 237 432.5 265 q 413 293 379.5 308 q 346 323 303 323 l 303 323 q 286 323 274 326 q 262 329 256.5 338.5 q 251 348 251 368 l 251 368 q 251 387 256.5 396 q 262 405 274 408 q 286 411 304 411 l 304 411 q 344 411 371.5 423.5 q 399 436 413 456.5 q 427 477 427 501 l 427 501 q 427 534 411.5 559.5 q 396 585 367.5 599 q 339 613 302 613 l 302 613 q 270 613 245.5 604.5 q 221 596 201.5 580 q 182 564 165 539 l 165 539 q 151 517 138 513.5 q 125 510 101 524 l 101 524 q 85 535 80.5 546 q 76 557 83 573 l 83 573 q 88 583 98 598.5 q 108 614 125 631 q 142 648 166 663 q 190 678 222.5 687.5 q 255 697 298 697 l 298 697 q 349 697 390.5 681.5 q 432 666 460 639 q 488 612 503 577.5 q 518 543 518 505 l 518 505 q 518 473 505.5 445 q 493 417 472 397.5 q 451 378 429 367 l 429 367 q 456 358 477 339.5 q 498 321 512.5 298 q 527 275 534.5 250 q 542 225 542 203 l 542 203 q 542 141 510.5 92 q 479 43 423 14.5 q 367 -14 293 -14"},"4":{"x_min":43,"x_max":496,"ha":544,"o":"m 450 -10 l 450 -10 q 430 -10 420.5 -4.5 q 411 1 408 11.5 q 405 22 405 35 l 405 35 l 405 211 l 88 211 q 69 211 59 217 q 49 223 46 233.5 q 43 244 43 257 l 43 257 q 43 263 43.5 268.5 q 44 274 46 279 l 46 279 l 155 655 q 163 685 174.5 690.5 q 186 696 209 691 l 209 691 q 231 687 241 675.5 q 251 664 245 646 l 245 646 l 144 295 l 405 295 l 405 649 q 405 661 408.5 669.5 q 412 678 422 683 q 432 688 452 688 l 452 688 q 471 688 480.5 682.5 q 490 677 493 667 q 496 657 496 643 l 496 643 l 496 34 q 496 20 492.5 10 q 489 0 479.5 -5 q 470 -10 450 -10"},"5":{"x_min":43,"x_max":472,"ha":516,"o":"m 253 -15 l 253 -15 q 218 -15 190.5 -9.5 q 163 -4 140.5 5 q 118 14 99.5 25 q 81 36 66 47 l 66 47 q 56 56 49.5 63 q 43 70 43 80 l 43 80 q 43 87 46.5 95 q 50 103 59 114 l 59 114 q 68 126 76.5 130.5 q 85 135 92 135 l 92 135 q 98 135 106 132 q 114 129 127 117 l 127 117 q 139 108 153.5 98 q 168 88 190 82 q 212 76 246 76 l 246 76 q 286 76 316.5 92 q 347 108 364 138 q 381 168 381 209 l 381 209 q 381 249 363.5 279 q 346 309 316 326.5 q 286 344 250 344 l 250 344 q 232 344 216 340 q 200 336 186.5 328.5 q 173 321 163 311 l 163 311 q 156 304 150.5 300.5 q 145 297 137 295 l 137 295 q 128 292 119 293.5 q 110 295 94 301 l 94 301 q 76 309 68 316 q 60 323 60 336 l 60 336 l 103 642 q 105 653 108 663.5 q 111 674 120.5 681.5 q 130 689 148 689 l 148 689 l 408 688 q 421 688 430.5 685 q 440 682 445 672 q 450 662 450 642 l 450 642 q 450 624 445 615 q 440 606 431 603 q 422 600 409 600 l 409 600 l 188 600 l 160 403 q 172 413 187.5 419 q 203 425 219 429 q 235 433 250 433 l 250 433 l 257 433 q 300 433 338.5 416 q 377 399 406.5 369 q 436 339 454 300 q 472 261 472 217 l 472 217 q 472 149 443 97 q 414 45 364.5 15 q 315 -15 253 -15"},"6":{"x_min":45,"x_max":491,"ha":536,"o":"m 275 -13 l 275 -13 q 203 -13 151.5 18.5 q 100 50 72.5 111.5 q 45 173 45 263 l 45 263 q 45 341 62.5 407 q 80 473 113.5 525.5 q 147 578 194 615.5 q 241 653 300.5 672.5 q 360 692 429 692 l 429 692 q 442 692 450.5 688.5 q 459 685 464 675.5 q 469 666 469 646 l 469 646 q 469 627 463.5 617.5 q 458 608 448 605 q 438 602 424 602 l 424 602 q 372 602 329 589 q 286 576 251.5 551.5 q 217 527 192.5 493 q 168 459 156 418 l 156 418 q 145 384 143 346 l 143 346 q 149 354 158 362 l 158 362 q 180 383 212.5 395 q 245 407 284 407 l 284 407 q 347 407 393.5 380.5 q 440 354 465.5 308.5 q 491 263 491 204 l 491 204 q 491 140 465 91 q 439 42 390.5 14.5 q 342 -13 275 -13 m 271 70 l 271 70 q 314 70 343.5 86 q 373 102 388.5 131 q 404 160 404 198 l 404 198 q 404 235 389 263.5 q 374 292 346 308 q 318 324 278 324 l 278 324 q 236 324 204.5 308.5 q 173 293 157 265 q 141 237 141 201 l 141 201 q 141 161 156 132 q 171 103 200.5 86.5 q 230 70 271 70"},"7":{"x_min":43,"x_max":511,"ha":554,"o":"m 199 -10 l 199 -10 q 180 -10 170 -6.5 q 160 -3 157 4 q 154 11 154 22 l 154 22 q 154 82 172.5 141 q 191 200 221.5 255.5 q 252 311 285 362 q 318 413 347.5 457 q 377 501 394.5 537 q 412 573 409 599 l 409 599 l 87 599 q 73 599 63 602 q 53 605 48 615 q 43 625 43 644 l 43 644 q 43 664 47.5 673 q 52 682 61 685 q 70 688 81 688 l 81 688 l 467 688 q 486 688 495.5 681 q 505 674 508 662 q 511 650 511 635 l 511 635 q 511 591 492 544.5 q 473 498 442.5 449 q 412 400 377.5 348 q 343 296 313 242.5 q 283 189 264 133.5 q 245 78 245 20 l 245 20 q 245 10 241.5 3.5 q 238 -3 228 -6.5 q 218 -10 199 -10"},"8":{"x_min":45,"x_max":514,"ha":559,"o":"m 283 -15 l 283 -15 q 213 -15 159.5 11.5 q 106 38 75.5 85.5 q 45 133 45 196 l 45 196 q 45 221 52 245 q 59 269 70 289.5 q 81 310 95 326 q 109 342 123.5 352.5 q 138 363 150 368 l 150 368 q 138 373 124 386.5 q 110 400 97 419 q 84 438 76 461 q 68 484 68 510 l 68 510 q 68 566 95.5 608.5 q 123 651 171.5 675.5 q 220 700 283 700 l 283 700 q 344 700 391 675.5 q 438 651 464.5 608 q 491 565 491 509 l 491 509 q 491 489 486 470.5 q 481 452 473 435.5 q 465 419 454.5 405.5 q 444 392 433.5 382 q 423 372 413 368 l 413 368 q 425 363 439 352 q 453 341 466 325 q 479 309 490.5 288.5 q 502 268 508 244.5 q 514 221 514 196 l 514 196 q 514 148 496.5 109 q 479 70 447.5 42.5 q 416 15 373.5 0 q 331 -15 283 -15 m 281 65 l 281 65 q 324 65 356.5 81.5 q 389 98 406.5 127 q 424 156 424 195 l 424 195 q 424 235 406.5 264 q 389 293 356 309.5 q 323 326 279 326 l 279 326 q 236 326 203.5 309.5 q 171 293 153 264 q 135 235 135 195 l 135 195 q 135 156 153 127 q 171 98 204 81.5 q 237 65 281 65 m 281 400 l 281 400 q 318 400 344.5 413.5 q 371 427 386 452 q 401 477 401 510 l 401 510 q 401 543 386 567 q 371 591 344 604 q 317 617 280 617 l 280 617 q 244 617 217 604 q 190 591 175 567 q 160 543 160 510 l 160 510 q 160 477 175 452 q 190 427 217.5 413.5 q 245 400 281 400"},"9":{"x_min":45,"x_max":491,"ha":536,"o":"m 107 -9 l 107 -9 q 95 -9 86 -5.5 q 77 -2 72 7.5 q 67 17 67 36 l 67 36 q 67 56 72.5 65.5 q 78 75 88 78 q 98 81 112 81 l 112 81 q 164 81 207 94 q 250 107 284.5 131.5 q 319 156 343.5 189.5 q 368 223 381 265 l 381 265 q 391 299 393 337 l 393 337 q 387 329 379 322 l 379 322 q 357 301 324.5 289 q 292 277 252 277 l 252 277 q 190 277 143 303 q 96 329 70.5 375 q 45 421 45 479 l 45 479 q 45 543 71.5 592 q 98 641 146.5 668.5 q 195 696 261 696 l 261 696 q 333 696 384.5 664 q 436 632 463.5 571 q 491 510 491 420 l 491 420 q 491 342 473.5 276 q 456 210 422.5 157.5 q 389 105 342 67.5 q 295 30 235.5 10.5 q 176 -9 107 -9 m 258 359 l 258 359 q 302 359 332.5 374.5 q 363 390 379.5 418 q 396 446 396 482 l 396 482 q 396 522 380.5 551 q 365 580 336 596.5 q 307 613 265 613 l 265 613 q 222 613 192.5 597 q 163 581 147.5 552.5 q 132 524 132 485 l 132 485 q 132 448 147 419.5 q 162 391 190.5 375 q 219 359 258 359"}," ":{"x_min":0,"x_max":0,"ha":254,"o":""},"!":{"x_min":63,"x_max":168,"ha":231,"o":"m 116 187 l 116 187 q 96 187 86.5 191.5 q 77 196 74 205.5 q 71 215 71 229 l 71 229 l 71 646 q 71 659 74 668.5 q 77 678 86.5 683.5 q 96 689 115 689 l 115 689 q 135 689 144.5 684 q 154 679 157 669.5 q 160 660 160 646 l 160 646 l 160 230 q 160 217 157 207 q 154 197 145 192 q 136 187 116 187 m 116 -11 l 116 -11 q 85 -11 74 1 q 63 13 63 41 l 63 41 q 63 58 67 70 q 71 82 82 88.5 q 93 95 115 95 l 115 95 q 147 95 157.5 83 q 168 71 168 43 l 168 43 q 168 26 164 14.5 q 160 3 149 -4 q 138 -11 116 -11"},"\"":{"x_min":53,"x_max":282,"ha":335,"o":"m 235 444 l 235 444 q 226 444 218.5 454.5 q 211 465 205.5 484 q 200 503 196.5 526.5 q 193 550 191 576 q 189 602 189 626 l 189 626 q 189 640 191 652.5 q 193 665 203 673.5 q 213 682 236 682 l 236 682 q 259 682 268.5 673.5 q 278 665 280 652.5 q 282 640 282 626 l 282 626 q 282 602 280.5 576 q 279 550 275 526.5 q 271 503 265.5 484 q 260 465 252.5 454.5 q 245 444 235 444 m 98 444 l 98 444 q 89 444 81.5 454.5 q 74 465 69 484 q 64 503 60 526.5 q 56 550 54.5 576 q 53 602 53 626 l 53 626 q 53 640 55 652.5 q 57 665 66.5 673.5 q 76 682 99 682 l 99 682 q 122 682 131.5 673.5 q 141 665 143 652.5 q 145 640 145 626 l 145 626 q 145 602 143.5 576 q 142 550 138 526.5 q 134 503 128.5 484 q 123 465 115.5 454.5 q 108 444 98 444"},"#":{"x_min":57.43,"x_max":737.88,"ha":796,"o":"m 195 -14 l 195 -14 q 177 -14 170.5 -3.5 q 164 7 168 31 l 168 31 l 190 162 l 80 162 q 66 162 61 169.5 q 56 177 58 195 l 58 195 q 60 213 65.5 222 q 71 231 81.5 234.5 q 92 238 105 238 l 105 238 l 202 238 l 232 421 l 123 421 q 109 421 103.5 428 q 98 435 100 452 l 100 452 q 102 471 108 480 q 114 489 124 492.5 q 134 496 148 496 l 148 496 l 244 496 l 269 646 q 273 668 279 679 q 285 690 297 694.5 q 309 699 330 699 l 330 699 q 351 699 356.5 687.5 q 362 676 357 648 l 357 648 l 331 496 l 535 496 l 558 642 q 562 664 567 676 q 572 688 583 693.5 q 594 699 616 699 l 616 699 q 637 699 644 688.5 q 651 678 647 653 l 647 653 l 622 496 l 714 496 q 731 496 735.5 487 q 740 478 736 460 l 736 460 q 732 442 725 433.5 q 718 425 709.5 423 q 701 421 690 421 l 690 421 l 608 421 l 580 238 l 671 238 q 688 238 692 228.5 q 696 219 694 206 l 694 206 q 689 187 683 177.5 q 677 168 668.5 165 q 660 162 647 162 l 647 162 l 566 162 l 546 40 q 544 22 538 10 q 532 -2 519.5 -8 q 507 -14 484 -14 l 484 -14 q 468 -14 461 -3.5 q 454 7 458 32 l 458 32 l 478 162 l 277 162 l 257 42 q 254 23 248 10.5 q 242 -2 230 -8 q 218 -14 195 -14 m 321 421 l 288 238 l 492 238 l 521 421 l 321 421"},"$":{"x_min":30.95,"x_max":412,"ha":467,"o":"m 412 203 l 412 203 q 412 170 401 142 q 390 114 369 93.5 q 348 73 319 60 q 290 47 254 42 l 254 42 l 254 -33 q 254 -46 251 -55.5 q 248 -65 240 -69.5 q 232 -74 216 -74 l 216 -74 q 200 -74 192 -69 q 184 -64 181.5 -54.5 q 179 -45 179 -32 l 179 -32 l 179 43 q 151 47 124.5 58.5 q 98 70 77.5 87 q 57 104 43 124 l 43 124 q 32 142 31 155 q 30 168 49 184 l 49 184 q 64 195 75 195 q 86 195 96 187 q 106 179 114 167 l 114 167 q 130 143 156.5 130 q 183 117 214 117 l 214 117 q 251 117 277 127 q 303 137 316.5 155.5 q 330 174 330 201 l 330 201 q 330 232 310 250 q 290 268 257.5 280.5 q 225 293 189 306 l 189 306 q 162 316 136 328 q 110 340 89 357.5 q 68 375 56 400 q 44 425 44 462 l 44 462 q 44 492 53 517 q 62 542 80 561 q 98 580 123 592.5 q 148 605 179 609 l 179 609 l 179 679 q 179 692 181.5 701.5 q 184 711 192 716 q 200 721 216 721 l 216 721 q 232 721 240 716 q 248 711 251 702 q 254 693 254 680 l 254 680 l 254 610 q 292 605 320.5 588.5 q 349 572 367 554 l 367 554 q 383 539 384 527.5 q 385 516 371 499 l 371 499 q 363 488 353.5 483.5 q 344 479 334.5 481.5 q 325 484 314 494 l 314 494 q 303 505 287 514 q 271 523 253 528.5 q 235 534 215 534 l 215 534 q 194 534 177 529 q 160 524 148.5 514.5 q 137 505 130.5 491.5 q 124 478 124 461 l 124 461 q 124 435 141.5 419 q 159 403 187 392 q 215 381 247 371 l 247 371 q 276 361 305 349 q 334 337 358.5 319 q 383 301 397.5 273 q 412 245 412 203"},"%":{"x_min":30,"x_max":797,"ha":823,"o":"m 211 -44 l 211 -44 q 200 -38 195.5 -31 q 191 -24 192.5 -13.5 q 194 -3 202 11 l 202 11 l 560 687 q 568 702 575 709 q 582 716 591 716.5 q 600 717 611 711 l 611 711 q 621 705 625.5 697.5 q 630 690 628 680.5 q 626 671 618 656 l 618 656 l 259 -21 q 252 -35 244.5 -42 q 237 -49 229 -49.5 q 221 -50 211 -44 m 208 317 l 208 317 q 128 317 79 368 q 30 419 30 503 l 30 503 q 30 587 79 638 q 128 689 208 689 l 208 689 q 288 689 335.5 638.5 q 383 588 383 504 l 383 504 q 383 418 335.5 367.5 q 288 317 208 317 m 208 390 l 208 390 q 256 390 283.5 421.5 q 311 453 311 505 l 311 505 q 311 557 283.5 586.5 q 256 616 208 616 l 208 616 q 159 616 130.5 586 q 102 556 102 505 l 102 505 q 102 452 130.5 421 q 159 390 208 390 m 622 -11 l 622 -11 q 542 -11 493 40 q 444 91 444 175 l 444 175 q 444 259 492.5 310 q 541 361 622 361 l 622 361 q 702 361 749.5 311 q 797 261 797 176 l 797 176 q 797 90 749.5 39.5 q 702 -11 622 -11 m 622 62 l 622 62 q 670 62 697.5 93.5 q 725 125 725 178 l 725 178 q 725 229 697.5 258.5 q 670 288 622 288 l 622 288 q 573 288 544.5 258 q 516 228 516 177 l 516 177 q 516 124 544.5 93 q 573 62 622 62"},"&":{"x_min":33,"x_max":659,"ha":713,"o":"m 248 -12 l 248 -12 q 180 -12 132 9.5 q 84 31 58.5 73 q 33 115 33 174 l 33 174 q 33 206 48 238.5 q 63 271 91.5 304.5 q 120 338 160 370 l 160 370 q 146 399 134.5 428.5 q 123 458 117 486.5 q 111 515 111 541 l 111 541 q 111 592 134 629 q 157 666 199 686 q 241 706 299 706 l 299 706 q 349 706 385.5 687.5 q 422 669 442 636 q 462 603 462 557 l 462 557 q 462 535 448 510.5 q 434 486 408 459.5 q 382 433 348 404.5 q 314 376 274 345 l 274 345 q 301 305 329.5 269.5 q 358 234 388.5 205.5 q 419 177 447 157 l 447 157 q 486 189 501 216.5 q 516 244 522 272 l 522 272 q 525 284 536 292.5 q 547 301 573 301 l 573 301 q 590 301 598.5 295.5 q 607 290 610.5 281.5 q 614 273 613 265 l 613 265 q 611 227 586.5 189 q 562 151 519 112 l 519 112 q 535 107 547.5 103 q 560 99 576 97.5 q 592 96 617 96 l 617 96 q 640 96 649.5 86.5 q 659 77 659 53 l 659 53 q 659 24 650 14 q 641 4 616 4 l 616 4 q 588 4 558.5 8 q 529 12 500 22 q 471 32 440 49 l 440 49 q 413 30 381 16 q 349 2 315.5 -5 q 282 -12 248 -12 m 248 73 l 248 73 q 282 73 313 82 q 344 91 365 105 l 365 105 q 348 121 327 141.5 q 306 162 285 186 q 264 210 243 237 q 222 264 203 292 l 203 292 q 182 272 167 256.5 q 152 241 143 228.5 q 134 216 130 202.5 q 126 189 126 174 l 126 174 q 126 143 141 120 q 156 97 183.5 85 q 211 73 248 73 m 233 416 l 233 416 q 266 441 292.5 461.5 q 319 482 337 500 q 355 518 365 533 q 375 548 375 559 l 375 559 q 375 592 354 612.5 q 333 633 298 633 l 298 633 q 267 633 244 622.5 q 221 612 208.5 593 q 196 574 196 547 l 196 547 q 196 530 200 511.5 q 204 493 212 470 q 220 447 233 416"},"'":{"x_min":45,"x_max":136,"ha":181,"o":"m 90 444 l 90 444 q 81 444 73.5 454.5 q 66 465 61 484 q 56 503 52 526.5 q 48 550 46.5 576 q 45 602 45 626 l 45 626 q 45 640 47 652.5 q 49 665 58.5 673.5 q 68 682 91 682 l 91 682 q 114 682 123 673.5 q 132 665 134 652.5 q 136 640 136 626 l 136 626 q 136 602 134.5 576 q 133 550 129.5 526.5 q 126 503 120.5 484 q 115 465 107.5 454.5 q 100 444 90 444"},"(":{"x_min":54,"x_max":324,"ha":377,"o":"m 283 -164 l 283 -164 q 240 -164 204 -140.5 q 168 -117 140.5 -74.5 q 113 -32 93.5 25.5 q 74 83 64 153 q 54 223 54 299 l 54 299 q 54 376 64 446 q 74 516 93 574.5 q 112 633 140 675.5 q 168 718 204 742 q 240 766 284 766 l 284 766 q 297 766 306 762.5 q 315 759 319.5 750.5 q 324 742 324 726 l 324 726 q 324 709 320 700.5 q 316 692 308 689 q 300 686 288 686 l 288 686 l 283 686 q 244 686 212 640.5 q 180 595 161 509.5 q 142 424 142 301 l 142 301 q 142 214 152.5 143 q 163 72 182 21.5 q 201 -29 227 -56.5 q 253 -84 284 -84 l 284 -84 q 297 -84 306 -87 q 315 -90 319.5 -98.5 q 324 -107 324 -125 l 324 -125 q 324 -141 319.5 -149.5 q 315 -158 305.5 -161 q 296 -164 283 -164"},")":{"x_min":51,"x_max":321,"ha":377,"o":"m 92 -164 l 92 -164 q 79 -164 70 -161 q 61 -158 56 -149.5 q 51 -141 51 -125 l 51 -125 q 51 -107 55.5 -98.5 q 60 -90 69.5 -87 q 79 -84 91 -84 l 91 -84 q 123 -84 149 -56.5 q 175 -29 194 21.5 q 213 72 223 143 q 233 214 233 301 l 233 301 q 233 424 214.5 509.5 q 196 595 164 640.5 q 132 686 92 686 l 92 686 l 87 686 q 76 686 67.5 689 q 59 692 55 700.5 q 51 709 51 726 l 51 726 q 51 742 55.5 750.5 q 60 759 69.5 762.5 q 79 766 91 766 l 91 766 q 135 766 171.5 742 q 208 718 235.5 675.5 q 263 633 282 574.5 q 301 516 311 446 q 321 376 321 299 l 321 299 q 321 223 311 153 q 301 83 282 25.5 q 263 -32 235 -74.5 q 207 -117 171 -140.5 q 135 -164 92 -164"},"*":{"x_min":46.21,"x_max":421.43,"ha":494,"o":"m 234 654 l 234 654 q 255 654 263.5 645.5 q 272 637 272 617 l 272 617 l 272 522 l 378 555 q 393 560 402 554 q 411 548 418 530 l 418 530 q 424 510 419.5 500 q 415 490 396 483 l 396 483 l 294 452 l 362 356 q 370 344 367 333.5 q 364 323 348 312 l 348 312 q 333 300 321 301.5 q 309 303 298 319 l 298 319 l 233 406 l 168 317 q 158 303 146.5 303 q 135 303 119 315 l 119 315 q 103 326 101 336.5 q 99 347 110 362 l 110 362 l 174 452 l 67 483 q 51 488 47.5 498 q 44 508 50 528 l 50 528 q 57 548 65.5 554 q 74 560 90 554 l 90 554 l 197 521 l 197 618 q 197 637 205.5 645.5 q 214 654 234 654"},"+":{"x_min":37,"x_max":499,"ha":537,"o":"m 269 25 l 269 25 q 251 25 241.5 30 q 232 35 228.5 44.5 q 225 54 225 67 l 225 67 l 225 213 l 79 213 q 66 213 57 215.5 q 48 218 42.5 227.5 q 37 237 37 255 l 37 255 q 37 275 42 284 q 47 293 57 296 q 67 299 79 299 l 79 299 l 225 299 l 225 445 q 225 459 228.5 468 q 232 477 241.5 482 q 251 487 269 487 l 269 487 q 288 487 297 481.5 q 306 476 309 466.5 q 312 457 312 444 l 312 444 l 312 299 l 458 299 q 471 299 480.5 296 q 490 293 494.5 283.5 q 499 274 499 255 q 499 236 494 227 q 489 218 480 215.5 q 471 213 458 213 l 458 213 l 312 213 l 312 68 q 312 55 309 45 q 306 35 297 30 q 288 25 269 25"},",":{"x_min":59,"x_max":164,"ha":225,"o":"m 71 -90 l 71 -90 l 68 -89 q 65 -88 62 -83.5 q 59 -79 59 -68 l 59 -68 q 59 -52 63.5 -48 q 68 -44 70 -44 l 70 -44 q 70 -43 81 -34.5 q 92 -26 94 -4 l 94 -4 q 86 -3 80 0 q 74 3 69 8 l 69 8 q 61 15 60 26.5 q 59 38 59 48 l 59 48 q 59 61 61 73 q 63 85 74 92.5 q 85 100 112 100 l 112 100 q 142 100 154 88 l 154 88 q 161 81 162.5 70 q 164 59 164 47 l 164 47 l 164 36 q 164 31 162 25 l 162 25 q 160 -5 147 -31.5 q 134 -58 114 -74 q 94 -90 71 -90"},"-":{"x_min":7,"x_max":350,"ha":426,"o":"m 308 213 l 49 213 q 37 213 27.5 216 q 18 219 12.5 228 q 7 237 7 256 l 7 256 q 7 275 12.5 284 q 18 293 27 296 q 36 299 48 299 l 48 299 l 310 299 q 322 299 331 296 q 340 293 345 284 q 350 275 350 256 l 350 256 q 350 237 345 228 q 340 219 330.5 216 q 321 213 308 213 l 308 213"},".":{"x_min":52,"x_max":159,"ha":211,"o":"m 106 -11 l 106 -11 q 76 -11 64 1 q 52 13 52 41 l 52 41 q 52 62 57 73.5 q 62 85 74 90.5 q 86 96 106 96 l 106 96 q 136 96 147.5 84 q 159 72 159 42 l 159 42 q 159 22 154 10.5 q 149 -1 137.5 -6 q 126 -11 106 -11"},"/":{"x_min":25.1,"x_max":466.28,"ha":517,"o":"m 50 -49 l 50 -49 q 28 -37 25.5 -23 q 23 -9 36 18 l 36 18 l 379 681 q 389 699 397.5 707.5 q 406 716 417 716 q 428 716 442 709 l 442 709 q 457 701 462.5 692.5 q 468 684 465.5 672 q 463 660 454 641 l 454 641 l 111 -21 q 98 -48 85 -53.5 q 72 -59 50 -49"},":":{"x_min":57,"x_max":164,"ha":234,"o":"m 110 340 l 110 340 q 81 340 69 351.5 q 57 363 57 392 l 57 392 q 57 412 62 424 q 67 436 79 441 q 91 446 111 446 l 111 446 q 140 446 152 434.5 q 164 423 164 393 l 164 393 q 164 373 159 361 q 154 349 142.5 344.5 q 131 340 110 340 m 110 -11 l 110 -11 q 80 -11 68.5 1 q 57 13 57 41 l 57 41 q 57 62 62 73.5 q 67 85 79 90.5 q 91 96 110 96 l 110 96 q 140 96 151.5 84 q 163 72 163 42 l 163 42 q 163 22 158.5 10.5 q 154 -1 142 -6 q 130 -11 110 -11"},";":{"x_min":52,"x_max":160,"ha":213,"o":"m 67 -90 l 67 -90 l 64 -89 q 61 -89 58 -84 q 55 -79 55 -68 l 55 -68 q 55 -52 59.5 -48 q 64 -44 66 -44 l 66 -44 l 77 -35 q 88 -26 90 -4 l 90 -4 q 82 -3 76 0 q 70 3 65 8 l 65 8 q 57 15 56 26 q 55 37 55 47 l 55 47 q 55 64 58 75.5 q 61 87 72.5 93.5 q 84 100 107 100 l 107 100 q 137 100 150 88 l 150 88 q 157 81 158.5 70 q 160 59 160 48 l 160 48 q 160 41 159.5 35.5 q 159 30 158 25 l 158 25 q 156 -5 143 -32 q 130 -59 110 -74.5 q 90 -90 67 -90 m 106 338 l 106 338 q 75 338 63.5 350 q 52 362 52 390 l 52 390 q 52 410 57 422.5 q 62 435 74 440 q 86 445 106 445 l 106 445 q 137 445 148 433 q 159 421 159 391 l 159 391 q 159 375 155.5 362.5 q 152 350 140.5 344 q 129 338 106 338"},"<":{"x_min":28,"x_max":484.82,"ha":513,"o":"m 411 1 l 411 1 l 47 241 q 38 247 33 256.5 q 28 266 28 277 l 28 277 q 28 291 33.5 299.5 q 39 308 47 312 l 47 312 l 412 553 q 423 560 432 563.5 q 441 567 451 563.5 q 461 560 472 543 l 472 543 q 483 528 484.5 517.5 q 486 507 480.5 498.5 q 475 490 463 483 l 463 483 l 144 277 l 464 70 q 475 63 480.5 55 q 486 47 484.5 36 q 483 25 472 10 l 472 10 q 461 -5 451.5 -9 q 442 -13 432.5 -9.5 q 423 -6 411 1"},"=":{"x_min":37,"x_max":428,"ha":465,"o":"m 387 314 l 78 314 q 66 314 57 316.5 q 48 319 43 328 q 38 337 38 356 l 38 356 q 38 374 42.5 383 q 47 392 56.5 395 q 66 398 77 398 l 77 398 l 389 398 q 401 398 409.5 395 q 418 392 423 383 q 428 374 428 355 l 428 355 q 428 337 423 328 q 418 319 408.5 316.5 q 399 314 387 314 l 387 314 m 387 115 l 78 115 q 66 115 57 117.5 q 48 120 42.5 129 q 37 138 37 156 l 37 156 q 37 175 42 184 q 47 193 56.5 196 q 66 199 77 199 l 77 199 l 389 199 q 401 199 409.5 196 q 418 193 423 184 q 428 175 428 156 l 428 156 q 428 138 423 129 q 418 120 408.5 117.5 q 399 115 387 115 l 387 115"},">":{"x_min":28.5,"x_max":486,"ha":513,"o":"m 467 241 l 102 1 q 91 -6 81 -9.5 q 71 -13 61.5 -9 q 52 -5 42 10 l 42 10 q 31 25 29 36 q 27 47 33 55 q 39 63 50 70 l 50 70 l 369 277 l 50 483 q 39 490 33.5 498.5 q 28 507 29.5 517.5 q 31 528 42 543 l 42 543 q 53 560 62.5 563.5 q 72 567 81.5 563.5 q 91 560 102 553 l 102 553 l 467 312 q 475 308 480.5 299.5 q 486 291 486 277 l 486 277 q 486 266 480.5 256.5 q 475 247 467 241 l 467 241"},"?":{"x_min":46.75,"x_max":447,"ha":491,"o":"m 247 186 l 247 186 q 229 186 220.5 191 q 212 196 209.5 205 q 207 214 207 227 l 207 227 l 207 322 q 207 342 218 353.5 q 229 365 247 373.5 q 265 382 285 390.5 q 305 399 323 413 q 341 427 352 449.5 q 363 472 363 508 l 363 508 q 363 564 333 593.5 q 303 623 244 623 l 244 623 q 216 623 193 614 q 170 605 154 589 q 138 573 129 550 l 129 550 q 125 538 119 531 q 113 524 103.5 522.5 q 94 521 78 527 l 78 527 q 62 532 55 538 q 48 544 47 553 q 46 562 49 575 l 49 575 q 53 593 64 611.5 q 75 630 91 646.5 q 107 663 129.5 675.5 q 152 688 181 696 q 210 704 244 704 l 244 704 q 307 704 352.5 680 q 398 656 422.5 613 q 447 570 447 511 l 447 511 q 447 478 438.5 451 q 430 424 415 401.5 q 400 379 379 361.5 q 358 344 335 332 l 335 332 q 314 321 291 313 l 291 313 l 291 225 q 291 213 288 204 q 285 195 276 190.5 q 267 186 247 186 m 248 -11 l 248 -11 q 216 -11 205.5 2 q 195 15 195 43 l 195 43 q 195 55 197 67.5 q 199 80 210.5 88 q 222 96 248 96 l 248 96 q 283 96 292.5 83.5 q 302 71 302 42 l 302 42 q 302 30 299.5 18 q 297 6 286 -2.5 q 275 -11 248 -11"},"@":{"x_min":37,"x_max":793,"ha":829,"o":"m 382 -141 l 382 -141 q 276 -141 198.5 -95.5 q 121 -50 79 33.5 q 37 117 37 229 l 37 229 q 37 311 64 378.5 q 91 446 141 495 q 191 544 259.5 570.5 q 328 597 411 597 l 411 597 q 502 597 573 571.5 q 644 546 693 498 q 742 450 767.5 382 q 793 314 793 230 l 793 230 q 793 165 776 112.5 q 759 60 729.5 23 q 700 -14 661.5 -34 q 623 -54 580 -54 l 580 -54 q 523 -54 490 -21.5 q 457 11 460 64 l 460 64 q 461 78 462.5 92 q 464 106 465 119 l 465 119 q 456 107 442 96 q 428 85 408 79 q 388 73 361 73 q 334 73 309 84 q 284 95 265 114.5 q 246 134 235.5 162 q 225 190 225 224 l 225 224 l 225 236 q 225 241 226 244 l 226 244 q 230 283 245 314.5 q 260 346 283.5 369 q 307 392 335.5 404.5 q 364 417 395 417 l 395 417 q 425 417 446.5 408 q 468 399 482.5 386 q 497 373 502 362 l 502 362 l 501 391 q 503 408 513.5 413 q 524 418 544 418 l 544 418 q 559 418 568.5 410 q 578 402 575 385 l 575 385 l 535 69 q 534 47 545.5 34 q 557 21 584 21 q 611 21 634.5 35 q 658 49 677.5 76.5 q 697 104 708 144 q 719 184 719 237 l 719 237 q 719 303 700.5 355.5 q 682 408 644.5 445.5 q 607 483 550.5 503 q 494 523 418 523 l 418 523 q 328 523 258.5 487 q 189 451 150.5 387 q 112 323 112 235 l 112 235 q 112 143 144.5 75.5 q 177 8 237.5 -28.5 q 298 -65 382 -65 l 382 -65 q 397 -65 405 -69 q 413 -73 416.5 -81 q 420 -89 420 -103 l 420 -103 q 420 -118 415 -126 q 410 -134 401 -137.5 q 392 -141 382 -141 m 382 151 l 382 151 q 401 151 417 157.5 q 433 164 445.5 175.5 q 458 187 466 204.5 q 474 222 478 243 l 478 243 l 478 251 q 478 272 472 288.5 q 466 305 455.5 316 q 445 327 430.5 333 q 416 339 399 339 l 399 339 q 380 339 363.5 333 q 347 327 334.5 314.5 q 322 302 314 285 q 306 268 303 246 l 303 246 l 303 237 q 303 211 313 191.5 q 323 172 340.5 161.5 q 358 151 382 151"},"A":{"x_min":13.22,"x_max":691.53,"ha":704,"o":"m 393 660 l 683 54 q 691 39 691.5 28.5 q 692 18 685 9.5 q 678 1 663 -6 l 663 -6 q 639 -17 625.5 -11 q 612 -5 601 18 l 601 18 l 521 189 l 182 189 l 103 19 q 92 -4 78.5 -10 q 65 -16 40 -5 l 40 -5 q 25 1 18.5 10 q 12 19 13.5 32 q 15 45 23 62 l 23 62 l 310 661 q 316 673 327.5 680.5 q 339 688 352 688 l 352 688 q 361 688 369 685 q 377 682 383 676 q 389 670 393 660 l 393 660 m 218 266 l 484 266 l 351 550 l 218 266"},"B":{"x_min":56,"x_max":592,"ha":638,"o":"m 389 -10 l 99 -10 q 81 -10 71.5 -3.5 q 62 3 59 15.5 q 56 28 56 43 l 56 43 l 56 637 q 56 652 59.5 663.5 q 63 675 72.5 681.5 q 82 688 100 688 l 100 688 l 379 688 q 435 688 477.5 663 q 520 638 544 595 q 568 552 567 501 l 567 501 q 568 475 561 450 q 554 425 540.5 403.5 q 527 382 507 368 l 507 368 q 534 351 553 324 q 572 297 582 264 q 592 231 592 195 l 592 195 q 591 152 576 114.5 q 561 77 533 49 q 505 21 468 5.5 q 431 -10 389 -10 l 389 -10 m 146 601 l 146 76 l 379 76 q 418 76 446 91 q 474 106 489 135 q 504 164 504 206 l 504 206 q 504 242 494 264 q 484 286 467 297.5 q 450 309 430.5 314 q 411 319 392.5 319.5 q 374 320 359 320 l 359 320 l 298 320 q 278 320 269 330 q 260 340 260 362 l 260 362 q 260 383 269.5 392 q 279 401 299 401 l 299 401 l 360 401 q 376 401 396 402 q 416 403 435.5 410 q 455 417 467.5 436.5 q 480 456 480 492 l 480 492 q 480 548 450 574.5 q 420 601 351 601 l 351 601 l 146 601"},"C":{"x_min":50,"x_max":617.73,"ha":667,"o":"m 399 -12 l 399 -12 q 345 -12 294 4 q 243 20 199 50 q 155 80 121.5 124.5 q 88 169 69 224.5 q 50 280 50 347 l 50 347 q 50 411 69 465.5 q 88 520 121 562 q 154 604 198.5 633.5 q 243 663 294.5 678.5 q 346 694 400 694 l 400 694 q 450 694 486 684 q 522 674 545 662.5 q 568 651 576 645 l 576 645 q 590 637 603 626 q 616 615 617 600 l 617 600 q 619 589 615.5 582 q 612 575 607 567 l 607 567 q 599 555 590.5 549.5 q 582 544 572 544 l 572 544 q 562 544 554 550 q 546 556 533 564 l 533 564 q 527 568 509 577 q 491 586 463 594.5 q 435 603 395 603 l 395 603 q 344 603 297.5 584.5 q 251 566 216 532 q 181 498 161 450 q 141 402 141 342 l 141 342 q 141 281 161 232.5 q 181 184 216.5 150 q 252 116 298 98 q 344 80 395 80 l 395 80 q 433 80 461.5 88 q 490 96 508.5 105.5 q 527 115 534 120 l 534 120 q 545 126 553.5 132 q 562 138 572 138 l 572 138 q 582 138 590.5 132.5 q 599 127 607 115 l 607 115 q 612 108 615.5 99.5 q 619 91 617 81 l 617 81 q 616 66 603 55.5 q 590 45 576 36 l 576 36 q 567 32 544.5 19.5 q 522 7 486 -2.5 q 450 -12 399 -12"},"D":{"x_min":65,"x_max":634,"ha":692,"o":"m 304 -10 l 109 -10 q 92 -10 82.5 -4 q 73 2 69 12.5 q 65 23 65 36 l 65 36 l 65 644 q 65 657 68.5 667 q 72 677 82 683 q 92 689 110 689 l 110 689 l 307 688 q 381 688 441.5 663.5 q 502 639 545 594 q 588 549 611 485 q 634 421 634 343 l 634 343 q 634 262 611 197 q 588 132 544.5 86 q 501 40 440 15 q 379 -10 304 -10 l 304 -10 m 155 597 l 155 81 l 307 81 q 380 81 433 112.5 q 486 144 515 201.5 q 544 259 544 338 l 544 338 q 544 418 515 476 q 486 534 432.5 565.5 q 379 597 306 597 l 306 597 l 155 597"},"E":{"x_min":76,"x_max":570,"ha":623,"o":"m 525 -10 l 121 -10 q 101 -10 91.5 -4.5 q 82 1 79 11.5 q 76 22 76 36 l 76 36 l 76 643 q 76 669 86.5 678.5 q 97 688 124 688 l 124 688 l 526 688 q 540 688 550 685 q 560 682 565 672 q 570 662 570 642 l 570 642 q 570 622 564.5 612.5 q 559 603 549 600 q 539 597 525 597 l 525 597 l 166 597 l 166 390 l 416 390 q 430 390 439.5 387 q 449 384 454 375 q 459 366 459 347 l 459 347 q 459 329 454 320 q 449 311 439 308.5 q 429 306 414 306 l 414 306 l 166 306 l 166 80 l 526 80 q 540 80 550 77 q 560 74 565 64.5 q 570 55 570 35 l 570 35 q 570 15 564.5 5.5 q 559 -4 549 -7 q 539 -10 525 -10 l 525 -10"},"F":{"x_min":76,"x_max":569,"ha":631,"o":"m 121 -10 l 121 -10 q 101 -10 91.5 -4.5 q 82 1 79 11.5 q 76 22 76 36 l 76 36 l 76 643 q 76 669 86.5 678.5 q 97 688 124 688 l 124 688 l 526 688 q 540 688 549.5 685 q 559 682 564 672 q 569 662 569 642 l 569 642 q 569 622 563.5 612.5 q 558 603 548 600 q 538 597 524 597 l 524 597 l 166 597 l 166 390 l 415 390 q 429 390 438.5 387 q 448 384 453 375 q 458 366 458 347 l 458 347 q 458 329 453 320 q 448 311 438.5 308.5 q 429 306 414 306 l 414 306 l 166 306 l 166 35 q 166 21 163 11 q 160 1 150.5 -4.5 q 141 -10 121 -10"},"G":{"x_min":56,"x_max":640,"ha":708,"o":"m 395 -12 l 395 -12 q 317 -12 255 13.5 q 193 39 148.5 86.5 q 104 134 80 201 q 56 268 56 350 l 56 350 q 56 428 80.5 491 q 105 554 151 599 q 197 644 261 669.5 q 325 695 405 696 l 405 696 q 436 696 468.5 690 q 501 684 531 673 q 561 662 585 647 l 585 647 q 602 636 614 624.5 q 626 613 627 601 l 627 601 q 628 595 625 586 q 622 577 617 569 l 617 569 q 609 557 599.5 551.5 q 590 546 581 546 l 581 546 q 577 546 567 551 q 557 556 542 566 l 542 566 q 525 576 502.5 585 q 480 594 454 599 q 428 604 400 604 l 400 604 q 323 604 266 573 q 209 542 178.5 484 q 148 426 147 347 l 147 347 q 148 265 179 205 q 210 145 266.5 112 q 323 79 399 79 l 399 79 q 424 79 450 83 q 476 87 501.5 94.5 q 527 102 549 113 l 549 113 l 549 306 l 374 306 q 361 306 351.5 309 q 342 312 337.5 321 q 333 330 333 348 l 333 348 q 333 366 338 375 q 343 384 352 387 q 361 390 374 390 l 374 390 l 591 390 q 611 390 621 383 q 631 376 635.5 365.5 q 640 355 640 340 l 640 340 l 640 94 q 640 78 622.5 60.5 q 605 43 573 28 l 573 28 q 550 16 521.5 7 q 493 -2 461 -7 q 429 -12 395 -12"},"H":{"x_min":73,"x_max":614,"ha":687,"o":"m 568 -10 l 568 -10 q 549 -10 539.5 -4.5 q 530 1 527 11.5 q 524 22 524 36 l 524 36 l 524 306 l 163 306 l 163 35 q 163 21 160 11 q 157 1 147 -4.5 q 137 -10 118 -10 l 118 -10 q 98 -10 88.5 -4.5 q 79 1 76 11.5 q 73 22 73 36 l 73 36 l 73 643 q 73 657 76.5 667 q 80 677 89.5 682.5 q 99 688 119 688 l 119 688 q 138 688 147.5 682.5 q 157 677 160 667 q 163 657 163 642 l 163 642 l 163 390 l 524 390 l 524 643 q 524 657 527 667 q 530 677 540 682.5 q 550 688 569 688 l 569 688 q 589 688 598.5 682.5 q 608 677 611 667 q 614 657 614 642 l 614 642 l 614 35 q 614 21 610.5 11 q 607 1 597.5 -4.5 q 588 -10 568 -10"},"I":{"x_min":63,"x_max":153,"ha":217,"o":"m 108 -10 l 108 -10 q 88 -10 78.5 -4.5 q 69 1 66 11.5 q 63 22 63 36 l 63 36 l 63 643 q 63 657 66.5 667 q 70 677 79.5 682.5 q 89 688 109 688 l 109 688 q 129 688 138.5 682.5 q 148 677 150.5 667 q 153 657 153 642 l 153 642 l 153 35 q 153 21 150 11 q 147 1 137.5 -4.5 q 128 -10 108 -10"},"J":{"x_min":41,"x_max":467,"ha":545,"o":"m 245 -13 l 245 -13 q 216 -13 188.5 -6 q 161 1 138 12 q 115 23 97 36 q 79 49 67 61 l 67 61 q 56 72 48.5 81 q 41 90 41 98 l 41 98 q 41 107 47 116.5 q 53 126 60 133 l 60 133 q 71 144 78.5 147.5 q 86 151 93 151 l 93 151 q 107 151 115.5 142 q 124 133 141 117 l 141 117 q 151 110 167 100 q 183 90 204 82.5 q 225 75 249 75 l 249 75 q 282 75 306 87 q 330 99 345.5 121 q 361 143 369 172.5 q 377 202 377 236 l 377 236 l 377 635 q 377 651 380 663 q 383 675 393.5 681.5 q 404 688 424 688 l 424 688 q 443 688 452 682.5 q 461 677 464 666.5 q 467 656 467 642 l 467 642 l 467 228 q 467 175 452.5 131 q 438 87 410 55 q 382 23 340.5 5 q 299 -13 245 -13"},"K":{"x_min":69,"x_max":542,"ha":591,"o":"m 114 -10 l 114 -10 q 94 -10 84.5 -4.5 q 75 1 72 11 q 69 21 69 35 l 69 35 l 69 644 q 69 657 72.5 667.5 q 76 678 85.5 683 q 95 688 115 688 l 115 688 q 135 688 144.5 682.5 q 154 677 157 667 q 160 657 160 643 l 160 643 l 160 401 l 455 674 q 467 686 477 690 q 487 694 497 690 q 507 686 519 674 l 519 674 q 538 655 537.5 641.5 q 537 628 519 611 l 519 611 l 221 340 l 523 67 q 542 49 542 35 q 542 21 523 3 l 523 3 q 510 -9 500 -13 q 490 -17 480.5 -13 q 471 -9 459 4 l 459 4 l 160 279 l 160 34 q 160 20 157 10 q 154 0 144 -5 q 134 -10 114 -10"},"L":{"x_min":65,"x_max":532,"ha":558,"o":"m 491 -10 l 112 -10 q 92 -10 82 -4.5 q 72 1 68.5 11 q 65 21 65 35 l 65 35 l 65 642 q 65 657 68 667 q 71 677 80.5 682.5 q 90 688 110 688 l 110 688 q 130 688 139.5 682.5 q 149 677 152 667 q 155 657 155 643 l 155 643 l 155 74 l 490 74 q 503 74 512 71 q 521 68 526.5 59 q 532 50 532 32 l 532 32 q 532 15 527 5.5 q 522 -4 513 -7 q 504 -10 491 -10 l 491 -10"},"M":{"x_min":69,"x_max":756,"ha":825,"o":"m 114 -10 l 114 -10 q 96 -10 86.5 -4 q 77 2 73 12.5 q 69 23 69 36 l 69 36 l 69 644 q 69 657 73 666.5 q 77 676 87 682 q 97 688 116 688 l 116 688 q 131 688 140 686 q 149 684 154.5 680.5 q 160 677 166 670 l 166 670 l 412 314 l 660 673 q 666 680 672 683 q 678 686 687.5 687 q 697 688 710 688 l 710 688 q 729 688 738.5 682 q 748 676 752 665.5 q 756 655 756 642 l 756 642 l 756 34 q 756 22 752 12 q 748 2 738 -4 q 728 -10 709 -10 l 709 -10 q 691 -10 681.5 -4 q 672 2 668.5 12.5 q 665 23 665 36 l 665 36 l 665 538 l 451 223 q 448 218 443 213.5 q 438 209 430.5 206 q 423 203 412 203 l 412 203 q 400 203 393.5 206 q 387 209 382 213.5 q 377 218 372 224 l 372 224 l 159 537 l 159 34 q 159 22 155.5 12 q 152 2 142.5 -4 q 133 -10 114 -10"},"N":{"x_min":65,"x_max":628,"ha":708,"o":"m 108 -10 l 108 -10 q 91 -10 81.5 -4 q 72 2 68.5 12.5 q 65 23 65 37 l 65 37 l 65 646 q 65 659 69 668 q 73 677 83.5 682.5 q 94 688 113 688 l 113 688 q 135 688 144 684 q 153 680 162 670 l 162 670 l 538 138 l 538 646 q 538 659 541.5 668 q 545 677 555 682.5 q 565 688 584 688 l 584 688 q 602 688 611.5 682 q 621 676 624.5 665.5 q 628 655 628 642 l 628 642 l 628 36 q 628 23 623.5 12.5 q 619 2 608.5 -4 q 598 -10 579 -10 l 579 -10 q 563 -10 552.5 -6 q 542 -2 533 9 l 533 9 l 155 537 l 155 36 q 155 23 151 12.5 q 147 2 137 -4 q 127 -10 108 -10"},"O":{"x_min":26,"x_max":706,"ha":732,"o":"m 371 -17 l 371 -17 q 300 -17 237.5 10 q 175 37 127.5 85.5 q 80 134 53 197 q 26 260 26 333 l 26 333 q 26 407 52 472.5 q 78 538 124.5 587 q 171 636 232 664 q 293 692 362 692 l 362 692 q 434 692 496.5 665 q 559 638 605.5 589.5 q 652 541 679 476 q 706 411 706 337 l 706 337 q 706 264 679.5 200.5 q 653 137 607 87.5 q 561 38 500.5 10.5 q 440 -17 371 -17 m 365 74 l 365 74 q 417 74 462.5 94 q 508 114 542 150.5 q 576 187 595.5 234.5 q 615 282 615 338 l 615 338 q 615 392 595.5 439.5 q 576 487 541.5 523.5 q 507 560 462 581 q 417 602 366 602 l 366 602 q 315 602 270 581 q 225 560 190.5 524 q 156 488 136.5 440 q 117 392 117 337 l 117 337 q 117 283 136.5 235 q 156 187 190.5 151 q 225 115 269.5 94.5 q 314 74 365 74"},"P":{"x_min":69,"x_max":557,"ha":601,"o":"m 113 -10 l 113 -10 q 94 -10 84.5 -4.5 q 75 1 72 11.5 q 69 22 69 36 l 69 36 l 69 643 q 69 656 72.5 666 q 76 676 86 682 q 96 688 114 688 l 114 688 l 333 688 q 381 688 421.5 673.5 q 462 659 492.5 629.5 q 523 600 540 558 q 557 516 557 461 l 557 461 q 557 407 540 365 q 523 323 492 294.5 q 461 266 420.5 251 q 380 236 332 236 l 332 236 l 160 236 l 160 35 q 160 21 156.5 11 q 153 1 143.5 -4.5 q 134 -10 113 -10 m 160 597 l 160 327 l 333 327 q 373 327 403 342.5 q 433 358 450 388.5 q 467 419 467 463 l 467 463 q 467 505 451 535 q 435 565 404.5 581 q 374 597 332 597 l 332 597 l 160 597"},"Q":{"x_min":26,"x_max":783.86,"ha":811,"o":"m 654 152 l 760 80 q 781 66 783.5 52.5 q 786 39 771 18 l 771 18 q 761 3 752 -2.5 q 743 -8 732.5 -5 q 722 -2 709 7 l 709 7 l 599 81 q 554 36 495.5 9.5 q 437 -17 371 -17 l 371 -17 q 300 -17 237.5 10 q 175 37 127.5 85.5 q 80 134 53 197.5 q 26 261 26 333 l 26 333 q 26 407 52 472.5 q 78 538 124.5 587 q 171 636 232 664 q 293 692 362 692 l 362 692 q 434 692 496.5 665 q 559 638 605.5 589.5 q 652 541 679 476 q 706 411 706 337 l 706 337 q 706 286 692.5 239 q 679 192 654 152 l 654 152 m 365 74 l 365 74 q 417 74 462.5 94 q 508 114 542 150.5 q 576 187 595.5 235 q 615 283 615 338 l 615 338 q 615 392 595.5 439.5 q 576 487 541.5 523.5 q 507 560 462 581 q 417 602 366 602 l 366 602 q 315 602 269.5 581 q 224 560 189.5 524 q 155 488 136 440 q 117 392 117 337 l 117 337 q 117 283 136.5 235 q 156 187 190.5 151 q 225 115 269.5 94.5 q 314 74 365 74"},"R":{"x_min":76,"x_max":576.19,"ha":624,"o":"m 120 -10 l 120 -10 q 101 -10 91 -4.5 q 81 1 78.5 11.5 q 76 22 76 36 l 76 36 l 76 644 q 76 657 79.5 666.5 q 83 676 92.5 682 q 102 688 121 688 l 121 688 l 342 688 q 391 688 431.5 673.5 q 472 659 502 631 q 532 603 548.5 560.5 q 565 518 565 462 l 565 462 q 565 427 554 389.5 q 543 352 520.5 319 q 498 286 463 264 l 463 264 q 455 259 445 255 l 445 255 l 563 67 q 573 51 575.5 40 q 578 29 571.5 20 q 565 11 549 1 l 549 1 q 528 -13 513.5 -8 q 499 -3 486 16 l 486 16 l 347 239 l 166 239 l 166 35 q 166 21 162.5 11 q 159 1 149.5 -4.5 q 140 -10 120 -10 m 166 597 l 166 327 l 364 327 q 387 327 407 335.5 q 427 344 442 361 q 457 378 466 403 q 475 428 475 463 l 475 463 q 475 506 459.5 536 q 444 566 414 581.5 q 384 597 340 597 l 340 597 l 166 597"},"S":{"x_min":41.8,"x_max":513,"ha":554,"o":"m 271 -20 l 271 -20 q 233 -20 199.5 -11 q 166 -2 138.5 13.5 q 111 29 90 48 q 69 67 57 86 l 57 86 q 46 102 43 112.5 q 40 123 44.5 133 q 49 143 63 155 l 63 155 q 79 167 91 166.5 q 103 166 113.5 157 q 124 148 135 133 l 135 133 q 160 99 196 83.5 q 232 68 267 68 l 267 68 q 312 68 347 80 q 382 92 402.5 116.5 q 423 141 423 180 l 423 180 q 423 212 407 234 q 391 256 364 271.5 q 337 287 304 298.5 q 271 310 237 321 l 237 321 q 210 330 184 341.5 q 158 353 135 367.5 q 112 382 94.5 402 q 77 422 67.5 449 q 58 476 58 512 l 58 512 q 58 567 84.5 609 q 111 651 159 674.5 q 207 698 270 698 l 270 698 q 307 698 338 691 q 369 684 393 672.5 q 417 661 434 648.5 q 451 636 460 625 l 460 625 q 478 606 480 593 q 482 580 465 561 l 465 561 q 449 543 434 542 q 419 541 401 556 l 401 556 q 382 578 361.5 590 q 341 602 318.5 606.5 q 296 611 269 611 l 269 611 q 243 611 220.5 604.5 q 198 598 181.5 585 q 165 572 156 553.5 q 147 535 147 511 l 147 511 q 147 484 161.5 465 q 176 446 200 432.5 q 224 419 254 408.5 q 284 398 317 388 l 317 388 q 353 377 388 361.5 q 423 346 451 323.5 q 479 301 496 267 q 513 233 513 183 l 513 183 q 513 133 493.5 95 q 474 57 440 31.5 q 406 6 362.5 -7 q 319 -20 271 -20"},"T":{"x_min":38,"x_max":627,"ha":664,"o":"m 78 688 l 587 688 q 600 688 608.5 685 q 617 682 622 673.5 q 627 665 627 646 l 627 646 q 627 628 621.5 619 q 616 610 607 607.5 q 598 605 585 605 l 585 605 l 378 605 l 378 34 q 378 21 374.5 11 q 371 1 361.5 -4.5 q 352 -10 333 -10 l 333 -10 q 313 -10 303.5 -4.5 q 294 1 291.5 11.5 q 289 22 289 35 l 289 35 l 289 605 l 79 605 q 66 605 57 607.5 q 48 610 43 619 q 38 628 38 646 l 38 646 q 38 665 42.5 673.5 q 47 682 56.5 685 q 66 688 78 688 l 78 688"},"U":{"x_min":72,"x_max":641,"ha":713,"o":"m 355 -13 l 355 -13 q 288 -13 235.5 10.5 q 183 34 146.5 76.5 q 110 119 91 177.5 q 72 236 72 305 l 72 305 l 72 643 q 72 657 75.5 667 q 79 677 88.5 682.5 q 98 688 118 688 l 118 688 q 138 688 148 682.5 q 158 677 161 667 q 164 657 164 642 l 164 642 l 164 305 q 164 238 186 187 q 208 136 251 106.5 q 294 77 358 77 l 358 77 q 418 77 461 105 q 504 133 527 184 q 550 235 550 306 l 550 306 l 550 649 q 550 661 553.5 669.5 q 557 678 567 683 q 577 688 597 688 l 597 688 q 616 688 625.5 682.5 q 635 677 638 667 q 641 657 641 642 l 641 642 l 641 303 q 641 233 622 175.5 q 603 118 566.5 75.5 q 530 33 476.5 10 q 423 -13 355 -13"},"V":{"x_min":55.95,"x_max":669,"ha":724,"o":"m 362 -10 l 362 -10 q 344 -10 332.5 -4.5 q 321 1 315 14 l 315 14 l 62 632 q 52 656 58.5 666 q 65 676 87 687 l 87 687 q 101 694 111.5 694.5 q 122 695 130.5 688.5 q 139 682 145 667 l 145 667 l 362 116 l 578 658 q 584 674 591.5 683.5 q 599 693 611 694.5 q 623 696 641 686 l 641 686 q 669 673 669 657.5 q 669 642 661 623 l 661 623 l 409 15 q 404 3 392 -3.5 q 380 -10 362 -10"},"W":{"x_min":30.26,"x_max":935,"ha":965,"o":"m 281 -6 l 281 -6 q 266 -6 257.5 -1.5 q 249 3 245 10.5 q 241 18 239 25 l 239 25 l 35 628 q 27 652 32.5 664.5 q 38 677 63 685 l 63 685 q 79 690 89.5 689.5 q 100 689 107.5 681.5 q 115 674 120 658 l 120 658 l 285 155 l 436 654 q 439 663 443.5 671 q 448 679 457 683.5 q 466 688 481 688 l 481 688 q 498 688 507 683 q 516 678 520.5 671.5 q 525 665 526 658 l 526 658 l 680 152 l 844 656 q 850 673 857 681.5 q 864 690 875.5 691 q 887 692 904 686 l 904 686 q 921 681 928 674 q 935 667 935 656 q 935 645 930 628 l 930 628 l 726 24 q 724 17 719.5 10 q 715 3 706.5 -1.5 q 698 -6 683 -6 l 683 -6 q 669 -6 660 -1 q 651 4 646.5 12.5 q 642 21 639 28 l 639 28 l 482 533 l 325 28 q 323 21 318 12.5 q 313 4 304.5 -1 q 296 -6 281 -6"},"X":{"x_min":61.48,"x_max":633.52,"ha":694,"o":"m 613 -6 l 613 -6 q 599 -16 589 -19.5 q 579 -23 570 -17.5 q 561 -12 550 1 l 550 1 l 348 264 l 145 1 q 134 -12 124.5 -17.5 q 115 -23 105 -19.5 q 95 -16 82 -6 l 82 -6 q 62 10 61.5 24 q 61 38 77 57 l 77 57 l 292 336 l 77 615 q 61 635 61.5 649 q 62 663 82 679 l 82 679 q 95 691 105 694 q 115 697 124.5 692 q 134 687 145 673 l 145 673 l 348 409 l 550 673 q 561 687 570 692 q 579 697 589.5 694 q 600 691 613 679 l 613 679 q 633 663 633.5 649 q 634 635 618 615 l 618 615 l 403 336 l 618 57 q 634 38 633.5 24 q 633 10 613 -6"},"Y":{"x_min":28.4,"x_max":610.9,"ha":638,"o":"m 587 685 l 587 685 q 608 670 610.5 657 q 613 644 600 626 l 600 626 l 365 269 l 365 34 q 365 21 362 10.5 q 359 0 349.5 -5.5 q 340 -11 320 -11 l 320 -11 q 300 -11 290.5 -5.5 q 281 0 277.5 11 q 274 22 274 36 l 274 36 l 274 270 l 38 624 q 26 642 29 655.5 q 32 669 53 684 l 53 684 q 68 694 78.5 696.5 q 89 699 98 693.5 q 107 688 115 674 l 115 674 l 319 354 l 524 674 q 533 688 541.5 693 q 550 698 561 696.5 q 572 695 587 685"},"Z":{"x_min":30,"x_max":545,"ha":575,"o":"m 499 -11 l 74 -11 q 54 -11 42 0.5 q 30 12 30 34 l 30 34 q 30 41 32 48 q 34 55 37 59 l 37 59 l 405 601 l 79 601 q 65 601 53.5 603.5 q 42 606 36 615 q 30 624 30 642 l 30 642 q 30 663 35.5 672.5 q 41 682 51.5 685 q 62 688 76 688 l 76 688 l 486 688 q 507 688 518.5 674.5 q 530 661 530 645 l 530 645 q 530 634 527 625.5 q 524 617 519 611 l 519 611 l 157 76 l 501 76 q 515 76 525 73 q 535 70 540 61 q 545 52 545 34 l 545 34 q 545 14 539.5 4.5 q 534 -5 524 -8 q 514 -11 499 -11 l 499 -11"},"[":{"x_min":44,"x_max":292,"ha":342,"o":"m 255 -160 l 89 -160 q 70 -160 60 -154.5 q 50 -149 47 -139 q 44 -129 44 -115 l 44 -115 l 44 717 q 44 730 47 740 q 50 750 60 756 q 70 762 89 762 l 89 762 l 256 762 q 268 762 276 759 q 284 756 288 747.5 q 292 739 292 720 l 292 720 q 292 702 287.5 693 q 283 684 274.5 681.5 q 266 679 254 679 l 254 679 l 130 679 l 130 -78 l 254 -78 q 266 -78 274.5 -80.5 q 283 -83 287.5 -92 q 292 -101 292 -119 l 292 -119 q 292 -136 288 -145.5 q 284 -155 275.5 -157.5 q 267 -160 255 -160 l 255 -160"},"\\":{"x_min":30.76,"x_max":456.2,"ha":519,"o":"m 431 -47 l 431 -47 q 417 -54 406.5 -53.5 q 396 -53 387.5 -44 q 379 -35 371 -18 l 371 -18 l 41 653 q 28 680 31.5 694 q 35 708 55 719 l 55 719 q 77 730 91 723 q 105 716 117 690 l 117 690 l 445 21 q 459 -8 455.5 -22 q 452 -36 431 -47"},"]":{"x_min":38,"x_max":286,"ha":342,"o":"m 241 -160 l 75 -160 q 64 -160 55.5 -157.5 q 47 -155 42.5 -145.5 q 38 -136 38 -119 l 38 -119 q 38 -101 42.5 -92 q 47 -83 55.5 -80.5 q 64 -78 76 -78 l 76 -78 l 200 -78 l 200 679 l 76 679 q 65 679 56 681.5 q 47 684 42.5 693 q 38 702 38 720 l 38 720 q 38 739 42.5 747.5 q 47 756 55.5 759 q 64 762 75 762 l 75 762 l 241 762 q 261 762 270.5 756 q 280 750 283 740 q 286 730 286 717 l 286 717 l 286 -115 q 286 -129 283 -139 q 280 -149 270.5 -154.5 q 261 -160 241 -160 l 241 -160"},"^":{"x_min":31.71,"x_max":478.29,"ha":509,"o":"m 255 517 l 255 517 q 263 517 270 513 q 277 509 283 503 l 283 503 l 463 322 q 472 314 476 305.5 q 480 297 477 287.5 q 474 278 461 265 l 461 265 q 449 253 439 250.5 q 429 248 421 252.5 q 413 257 404 265 l 404 265 l 255 415 l 105 265 q 97 257 88.5 252.5 q 80 248 70.5 250.5 q 61 253 49 265 l 49 265 q 36 278 33 287.5 q 30 297 34 305.5 q 38 314 46 322 l 46 322 l 227 503 q 233 509 240 513 q 247 517 255 517"},"_":{"x_min":45,"x_max":769,"ha":812,"o":"m 729 -143 l 84 -143 q 72 -143 63 -140.5 q 54 -138 49.5 -129 q 45 -120 45 -103 l 45 -103 q 45 -85 49.5 -76 q 54 -67 62.5 -64 q 71 -61 83 -61 l 83 -61 l 731 -61 q 743 -61 751.5 -64 q 760 -67 764.5 -76 q 769 -85 769 -103 l 769 -103 q 769 -120 764 -129 q 759 -138 750 -140.5 q 741 -143 729 -143 l 729 -143"},"`":{"x_min":46.57,"x_max":274.45,"ha":334,"o":"m 223 545 l 223 545 l 72 596 q 53 603 48.5 613.5 q 44 624 50 645 l 50 645 q 57 667 67.5 672.5 q 78 678 97 672 l 97 672 l 249 620 q 269 614 273 602.5 q 277 591 270 571 l 270 571 q 263 549 253 544 q 243 539 223 545"},"a":{"x_min":38,"x_max":518,"ha":574,"o":"m 475 -9 l 475 -9 q 453 -9 443.5 0 q 434 9 432 28 l 432 28 l 436 78 q 426 62 405 41.5 q 384 21 350 5.5 q 316 -10 267 -10 l 267 -10 q 219 -10 177.5 9 q 136 28 104.5 62 q 73 96 55.5 140 q 38 184 38 234 l 38 234 q 38 283 55.5 326.5 q 73 370 105 403 q 137 436 178.5 455 q 220 474 267 474 l 267 474 q 311 474 342 462.5 q 373 451 395.5 432.5 q 418 414 435 391 l 435 391 l 433 433 q 432 455 442.5 464.5 q 453 474 476 474 l 476 474 q 495 474 503.5 468 q 512 462 515 451 q 518 440 518 424 l 518 424 l 518 38 q 518 24 515 13 q 512 2 503 -3.5 q 494 -9 475 -9 m 282 74 l 282 74 q 322 74 355.5 95 q 389 116 408.5 151.5 q 428 187 428 233 l 428 233 q 428 280 407.5 315.5 q 387 351 353.5 371.5 q 320 392 280 392 l 280 392 q 233 392 198.5 370.5 q 164 349 144 313 q 124 277 124 231 l 124 231 q 124 186 144 150.5 q 164 115 199.5 94.5 q 235 74 282 74"},"b":{"x_min":58,"x_max":533,"ha":582,"o":"m 310 -10 l 310 -10 q 261 -10 221 8 q 181 26 153 59 l 153 59 q 149 64 145 69 l 145 69 l 145 25 q 143 6 133.5 -2.5 q 124 -11 102 -11 l 102 -11 q 83 -11 73.5 -5.5 q 64 0 61 10.5 q 58 21 58 34 l 58 34 l 58 651 q 58 666 61 676 q 64 686 73.5 691.5 q 83 697 102 697 q 121 697 130 691 q 139 685 142 675 q 145 665 145 651 l 145 651 l 145 396 q 149 401 154 407 l 154 407 q 182 439 221.5 457 q 261 475 310 475 l 310 475 q 356 475 396.5 457 q 437 439 467.5 406.5 q 498 374 515.5 330 q 533 286 533 234 l 533 234 q 533 181 515.5 136.5 q 498 92 467.5 59 q 437 26 396.5 8 q 356 -10 310 -10 m 297 75 l 297 75 q 339 75 373 95 q 407 115 426.5 150.5 q 446 186 446 232 l 446 232 q 446 279 426.5 314.5 q 407 350 373.5 370 q 340 390 297 390 l 297 390 q 255 390 221.5 370 q 188 350 168.5 314.5 q 149 279 149 232 l 149 232 q 149 186 168.5 150.5 q 188 115 221.5 95 q 255 75 297 75"},"c":{"x_min":40,"x_max":471.85,"ha":508,"o":"m 291 -12 l 291 -12 q 239 -12 193.5 5 q 148 22 113.5 54 q 79 86 59.5 130.5 q 40 175 40 232 l 40 232 q 40 289 59.5 333.5 q 79 378 113 410 q 147 442 192.5 459 q 238 476 289 476 l 289 476 q 323 476 356 465.5 q 389 455 414.5 438.5 q 440 422 451 404 l 451 404 q 461 391 465.5 382.5 q 470 374 466 363 l 466 363 q 462 355 455 348.5 q 448 342 441 338 l 441 338 q 423 324 405 334 l 405 334 q 394 345 380.5 354.5 q 367 364 352 372 q 337 380 321.5 384.5 q 306 389 289 389 l 289 389 q 242 389 206 369.5 q 170 350 150.5 314.5 q 131 279 131 232 l 131 232 q 131 185 150.5 150 q 170 115 205.5 95 q 241 75 287 75 l 287 75 q 308 75 327.5 80.5 q 347 86 364 95.5 q 381 105 392 116 l 392 116 q 402 123 409 128 q 416 133 426 133 l 426 133 q 434 133 443 126.5 q 452 120 462 107 l 462 107 q 470 98 471.5 88 q 473 78 468 69 q 463 60 452 51 l 452 51 q 436 35 409.5 20.5 q 383 6 352 -3 q 321 -12 291 -12"},"d":{"x_min":49,"x_max":524,"ha":586,"o":"m 272 -10 l 272 -10 q 227 -10 186 8 q 145 26 114.5 59 q 84 92 66.5 136.5 q 49 181 49 234 l 49 234 q 49 286 66.5 330 q 84 374 114.5 406.5 q 145 439 186 457 q 227 475 272 475 l 272 475 q 321 475 360.5 457 q 400 439 429 407 l 429 407 q 433 401 437 396 l 437 396 l 437 651 q 437 666 439.5 676 q 442 686 451.5 691.5 q 461 697 480 697 q 499 697 508.5 691.5 q 518 686 521 676 q 524 666 524 652 l 524 652 l 524 36 q 524 22 521 11.5 q 518 1 509 -4.5 q 500 -10 481 -10 l 481 -10 q 459 -10 449 -2 q 439 6 437 25 l 437 25 l 437 69 q 433 64 429 59 l 429 59 q 401 26 361.5 8 q 322 -10 272 -10 m 285 75 l 285 75 q 327 75 360.5 95 q 394 115 413.5 150.5 q 433 186 433 232 l 433 232 q 433 279 413.5 314.5 q 394 350 360.5 370 q 327 390 285 390 q 243 390 209 370 q 175 350 155.5 314.5 q 136 279 136 232 l 136 232 q 136 186 155.5 150.5 q 175 115 209.5 95 q 244 75 285 75"},"e":{"x_min":38,"x_max":503,"ha":540,"o":"m 291 -15 l 291 -15 q 231 -15 184 5 q 137 25 104.5 59.5 q 72 94 55 139 q 38 184 38 236 l 38 236 q 38 305 70 359 q 102 413 158.5 444.5 q 215 476 288 476 l 288 476 q 338 476 377.5 460.5 q 417 445 445 419 q 473 393 488 361 q 503 329 503 297 l 503 297 q 503 246 479 225.5 q 455 205 420 205 l 420 205 l 131 205 q 130 161 154.5 129.5 q 179 98 216.5 81 q 254 64 292 64 l 292 64 q 320 64 340 67 q 360 70 375 75 q 390 80 401 85 q 412 90 420.5 95 q 429 100 437 102 l 437 102 q 446 104 454.5 100.5 q 463 97 468 87 l 468 87 q 474 79 476 72 q 478 65 478 57 l 478 57 q 478 43 454 26 q 430 9 387.5 -3 q 345 -15 291 -15 m 131 264 l 131 264 l 382 264 q 401 264 410.5 269 q 420 274 420 296 l 420 296 q 420 324 403 346.5 q 386 369 356.5 383 q 327 397 289 397 l 289 397 q 245 397 208.5 379.5 q 172 362 151 332 q 130 302 131 264"},"f":{"x_min":30,"x_max":348,"ha":378,"o":"m 162 -11 l 162 -11 q 144 -11 134.5 -5 q 125 1 122 11.5 q 119 22 119 36 l 119 36 l 119 379 l 66 378 q 45 378 37.5 388 q 30 398 30 421 l 30 421 q 30 443 39 453 q 48 463 68 463 l 68 463 l 119 462 l 119 538 q 119 578 128 608 q 137 638 158 658 q 179 678 211.5 688.5 q 244 699 292 699 l 292 699 q 305 699 315.5 696.5 q 326 694 331.5 684.5 q 337 675 337 656 q 337 637 331 627.5 q 325 618 315 615 q 305 612 291 612 l 291 612 q 268 612 251.5 610 q 235 608 226 601 q 217 594 212.5 579.5 q 208 565 208 540 l 208 540 l 208 463 l 303 464 q 317 464 327 461.5 q 337 459 342.5 449.5 q 348 440 348 421 q 348 402 343 392.5 q 338 383 328 380 q 318 377 304 377 l 304 377 l 208 378 l 208 33 q 208 20 204.5 10 q 201 0 191.5 -5.5 q 182 -11 162 -11"},"g":{"x_min":41,"x_max":497,"ha":565,"o":"m 267 -206 l 267 -206 q 232 -206 200 -198 q 168 -190 144 -177 q 120 -164 106 -149 q 92 -134 92 -121 l 92 -121 q 92 -111 95 -104.5 q 98 -98 104 -91 l 104 -91 q 114 -81 120 -77 q 126 -73 136 -73 q 146 -73 156 -81.5 q 166 -90 180.5 -100.5 q 195 -111 216.5 -119.5 q 238 -128 270 -128 l 270 -128 q 303 -128 329 -118 q 355 -108 374 -88 q 393 -68 403 -39.5 q 413 -11 413 25 l 413 25 l 413 75 q 394 48 367 30 l 367 30 q 324 1 264 1 l 264 1 q 216 1 175.5 18.5 q 135 36 104.5 68 q 74 100 57.5 143 q 41 186 41 237 q 41 288 57.5 331 q 74 374 104 406 q 134 438 174.5 455.5 q 215 473 263 473 l 263 473 q 307 473 343 456 q 379 439 405 408 l 405 408 q 408 403 411 399 l 411 399 l 411 441 q 412 460 422.5 468 q 433 476 456 476 l 456 476 q 475 476 483.5 470.5 q 492 465 494.5 455.5 q 497 446 497 432 l 497 432 l 497 18 q 497 -35 480 -76.5 q 463 -118 432 -147 q 401 -176 359 -191 q 317 -206 267 -206 m 269 83 l 269 83 q 309 83 341 103 q 373 123 392 158 q 411 193 411 239 l 411 239 q 411 284 392 318.5 q 373 353 340.5 372 q 308 391 267 391 q 226 391 194 372 q 162 353 144.5 318.5 q 127 284 127 238 q 127 192 145 157.5 q 163 123 195 103 q 227 83 269 83"},"h":{"x_min":56,"x_max":495,"ha":535,"o":"m 100 -10 l 100 -10 q 81 -10 71 -4.5 q 61 1 58.5 11.5 q 56 22 56 36 l 56 36 l 56 652 q 56 666 59 676 q 62 686 72 691.5 q 82 697 101 697 l 101 697 q 121 697 130.5 691.5 q 140 686 142.5 676 q 145 666 145 651 l 145 651 l 145 404 q 169 432 203.5 454 q 238 476 288 476 l 288 476 q 347 476 393.5 448.5 q 440 421 467.5 371 q 495 321 495 252 l 495 252 l 495 35 q 495 21 492 11 q 489 1 480 -4.5 q 471 -10 451 -10 l 451 -10 q 432 -10 422 -4.5 q 412 1 409 11.5 q 406 22 406 36 l 406 36 l 406 253 q 406 295 392 326 q 378 357 350.5 374 q 323 391 281 391 l 281 391 q 224 391 187.5 358.5 q 151 326 145 272 l 145 272 l 145 35 q 145 21 142 11 q 139 1 129.5 -4.5 q 120 -10 100 -10"},"i":{"x_min":61,"x_max":163,"ha":224,"o":"m 112 -10 l 112 -10 q 93 -10 83.5 -4.5 q 74 1 71 11 q 68 21 68 35 l 68 35 l 68 430 q 68 444 71 454 q 74 464 83.5 469 q 93 474 113 474 l 113 474 q 132 474 141 468.5 q 150 463 153 453 q 156 443 156 428 l 156 428 l 156 34 q 156 20 153 10 q 150 0 140.5 -5 q 131 -10 112 -10 m 112 594 l 112 594 q 90 594 79 600.5 q 68 607 64.5 619 q 61 631 61 647 l 61 647 q 61 663 65 674.5 q 69 686 80 691.5 q 91 697 113 697 l 113 697 q 134 697 145 691 q 156 685 159.5 673 q 163 661 163 645 l 163 645 q 163 629 159.5 617.5 q 156 606 145 600 q 134 594 112 594"},"j":{"x_min":-85,"x_max":171,"ha":240,"o":"m -41 -205 l -41 -205 q -54 -205 -64 -201.5 q -74 -198 -79.5 -189 q -85 -180 -85 -161 l -85 -161 q -85 -143 -79.5 -134 q -74 -125 -63.5 -121.5 q -53 -118 -40 -118 l -40 -118 q -17 -118 4.5 -114 q 26 -110 42.5 -98 q 59 -86 68.5 -62.5 q 78 -39 78 -2 l 78 -2 l 78 433 q 78 446 81 455 q 84 464 93.5 469.5 q 103 475 122 475 l 122 475 q 140 475 149.5 469.5 q 159 464 162 453.5 q 165 443 165 429 l 165 429 l 165 -2 q 165 -54 149 -92.5 q 133 -131 105 -156 q 77 -181 40 -193 q 3 -205 -41 -205 m 120 595 l 120 595 q 91 595 80.5 606.5 q 70 618 70 647 l 70 647 q 70 676 81 686.5 q 92 697 121 697 l 121 697 q 150 697 160.5 685.5 q 171 674 171 645 l 171 645 q 171 617 160 606 q 149 595 120 595"},"k":{"x_min":63,"x_max":455.63,"ha":489,"o":"m 217 240 l 435 68 q 454 53 455.5 39 q 457 25 441 6 l 441 6 q 429 -8 419.5 -12.5 q 410 -17 400 -13.5 q 390 -10 377 1 l 377 1 l 151 185 l 151 35 q 151 21 147.5 11 q 144 1 135 -4.5 q 126 -10 106 -10 l 106 -10 q 88 -10 78 -4.5 q 68 1 65.5 11.5 q 63 22 63 36 l 63 36 l 63 653 q 63 667 66 677 q 69 687 79 692.5 q 89 698 107 698 l 107 698 q 127 698 136 692.5 q 145 687 148 676.5 q 151 666 151 652 l 151 652 l 151 298 l 316 456 q 327 467 337.5 471.5 q 348 476 358.5 473 q 369 470 380 457 l 380 457 q 398 437 397.5 423.5 q 397 410 379 393 l 379 393 l 217 240"},"l":{"x_min":58,"x_max":254,"ha":281,"o":"m 215 -10 l 215 -10 q 183 -10 157.5 -4.5 q 132 1 113 13 q 94 25 81.5 44 q 69 63 63.5 90 q 58 117 58 153 l 58 153 l 58 653 q 58 668 60.5 678 q 63 688 73 693.5 q 83 699 101 699 l 101 699 q 121 699 130.5 694 q 140 689 143 679 q 146 669 146 655 l 146 655 l 146 154 q 146 134 150 119.5 q 154 105 162.5 95 q 171 85 184 81 q 197 77 215 77 l 215 77 q 227 77 235.5 74 q 244 71 249 62 q 254 53 254 34 l 254 34 q 254 14 249 4.5 q 244 -5 235.5 -7.5 q 227 -10 215 -10"},"m":{"x_min":63,"x_max":766,"ha":826,"o":"m 106 -10 l 106 -10 q 87 -10 78 -4 q 69 2 66 12 q 63 22 63 36 l 63 36 l 63 432 q 63 446 66 455 q 69 464 78.5 469 q 88 474 107 474 l 107 474 q 129 474 138.5 465.5 q 148 457 148 436 l 148 436 l 144 393 q 151 408 165 423 q 179 438 198.5 450 q 218 462 240 469 q 262 476 285 476 l 285 476 q 320 476 347.5 463.5 q 375 451 397 428 q 419 405 434 371 l 434 371 q 454 404 476.5 427.5 q 499 451 528 463.5 q 557 476 593 476 l 593 476 q 650 476 688.5 447.5 q 727 419 746.5 367.5 q 766 316 766 244 l 766 244 l 766 35 q 766 21 763.5 11 q 761 1 751.5 -4.5 q 742 -10 722 -10 l 722 -10 q 703 -10 693.5 -4 q 684 2 681 12 q 678 22 678 36 l 678 36 l 678 245 q 678 290 667.5 322.5 q 657 355 635.5 373 q 614 391 580 391 l 580 391 q 544 391 516.5 373.5 q 489 356 474 323 q 459 290 459 245 l 459 245 l 459 34 q 459 19 453 8 q 447 -3 435 -7.5 q 423 -12 406 -9 l 406 -9 q 390 -7 382 -1 q 374 5 372 14.5 q 370 24 370 36 l 370 36 l 370 245 q 370 290 359.5 322.5 q 349 355 327.5 373 q 306 391 272 391 l 272 391 q 236 391 208.5 372.5 q 181 354 166 321 q 151 288 151 245 l 151 245 l 151 35 q 151 21 148 11 q 145 1 135.5 -4.5 q 126 -10 106 -10"},"n":{"x_min":64,"x_max":501,"ha":557,"o":"m 107 -9 l 107 -9 q 88 -9 78.5 -3.5 q 69 2 66.5 12 q 64 22 64 36 l 64 36 l 64 433 q 64 446 67 455 q 70 464 79.5 469 q 89 474 108 474 l 108 474 q 123 474 131.5 470.5 q 140 467 143.5 461 q 147 455 148 448 q 149 441 149 435 l 149 435 l 147 389 q 157 406 172 421.5 q 187 437 207 449.5 q 227 462 250.5 469 q 274 476 301 476 l 301 476 q 345 476 382 460.5 q 419 445 445.5 415.5 q 472 386 486.5 345 q 501 304 501 252 l 501 252 l 501 35 q 501 21 498.5 11 q 496 1 486.5 -4 q 477 -9 458 -9 l 458 -9 q 438 -9 428.5 -3.5 q 419 2 416 12 q 413 22 413 36 l 413 36 l 413 253 q 413 295 399 326 q 385 357 357 374.5 q 329 392 286 392 l 286 392 q 245 392 214.5 374.5 q 184 357 167.5 326 q 151 295 151 253 l 151 253 l 151 35 q 151 21 148 11 q 145 1 135.5 -4 q 126 -9 107 -9"},"o":{"x_min":34,"x_max":526,"ha":560,"o":"m 282 -16 l 282 -16 q 233 -16 188.5 3 q 144 22 109 55.5 q 74 89 54 134 q 34 179 34 232 l 34 232 q 34 284 53 328.5 q 72 373 106 407 q 140 441 184.5 460.5 q 229 480 280 480 l 280 480 q 349 480 404.5 447.5 q 460 415 493 359 q 526 303 526 233 l 526 233 q 526 178 506 132.5 q 486 87 452 54 q 418 21 374 2.5 q 330 -16 282 -16 m 280 71 l 280 71 q 322 71 358 92 q 394 113 416 150 q 438 187 438 234 l 438 234 q 438 281 417.5 317 q 397 353 361 373 q 325 393 279 393 l 279 393 q 235 393 199.5 372 q 164 351 142.5 315 q 121 279 121 233 l 121 233 q 121 185 143 148.5 q 165 112 201.5 91.5 q 238 71 280 71"},"p":{"x_min":55,"x_max":531,"ha":574,"o":"m 308 -6 l 308 -6 q 259 -6 219 12 q 179 30 151 63 l 151 63 q 147 67 144 71 l 144 71 l 144 -161 q 145 -175 142 -185.5 q 139 -196 129.5 -201.5 q 120 -207 100 -207 l 100 -207 q 81 -207 71.5 -201.5 q 62 -196 58.5 -186 q 55 -176 55 -162 l 55 -162 l 55 429 q 55 443 58 453 q 61 463 70.5 468.5 q 80 474 99 474 l 99 474 q 121 474 131.5 467 q 142 460 144 442 l 144 442 l 144 399 q 148 404 152 409 l 152 409 q 180 441 219.5 458.5 q 259 476 308 476 l 308 476 q 354 476 394.5 458 q 435 440 465.5 407.5 q 496 375 513.5 330 q 531 285 531 233 q 531 181 513.5 137 q 496 93 465.5 61 q 435 29 394.5 11.5 q 354 -6 308 -6 m 295 76 l 295 76 q 337 76 371 96.5 q 405 117 424.5 153 q 444 189 444 235 l 444 235 q 444 282 424.5 317 q 405 352 371.5 371.5 q 338 391 295 391 l 295 391 q 253 391 219.5 371 q 186 351 166.5 316 q 147 281 147 235 q 147 189 166.5 153 q 186 117 219.5 96.5 q 253 76 295 76"},"q":{"x_min":36,"x_max":512,"ha":568,"o":"m 260 -6 l 260 -6 q 214 -6 173.5 11.5 q 133 29 102 61 q 71 93 53.5 137 q 36 181 36 233 q 36 285 53.5 330 q 71 375 102 407.5 q 133 440 173.5 458 q 214 476 260 476 l 260 476 q 309 476 348.5 458.5 q 388 441 416 409 l 416 409 q 420 404 423 400 l 423 400 l 423 442 q 425 454 430 461 q 435 468 444.5 471 q 454 474 468 474 l 468 474 q 488 474 497.5 468.5 q 507 463 509.5 453 q 512 443 512 429 l 512 429 l 512 -162 q 512 -176 509 -186 q 506 -196 496.5 -201.5 q 487 -207 467 -207 l 467 -207 q 448 -207 438.5 -201.5 q 429 -196 426 -185.5 q 423 -175 423 -161 l 423 -161 l 423 70 q 420 66 417 63 l 417 63 q 388 30 348.5 12 q 309 -6 260 -6 m 273 76 l 273 76 q 314 76 347.5 96.5 q 381 117 401 153 q 421 189 421 235 q 421 281 401.5 316 q 382 351 348.5 371 q 315 391 272 391 l 272 391 q 231 391 196.5 371 q 162 351 142.5 316 q 123 281 123 235 q 123 189 143 153 q 163 117 197 96.5 q 231 76 273 76"},"r":{"x_min":64,"x_max":370,"ha":406,"o":"m 107 -10 l 107 -10 q 88 -10 78.5 -4.5 q 69 1 66.5 11.5 q 64 22 64 36 l 64 36 l 64 430 q 64 445 67 455 q 70 465 79 469.5 q 88 474 108 474 l 108 474 q 126 474 135.5 469.5 q 145 465 148.5 456.5 q 152 448 152 437 l 152 437 l 148 407 q 155 420 164.5 433 q 174 446 188.5 456.5 q 203 467 223.5 474 q 244 481 274 481 l 274 481 q 289 481 302.5 478.5 q 316 476 328.5 471 q 341 466 350 459.5 q 359 453 364.5 445.5 q 370 438 370 428 l 370 428 q 370 406 356 390.5 q 342 375 327 375 l 327 375 q 314 375 308 378.5 q 302 382 296.5 386 q 291 390 281 393.5 q 271 397 249 397 l 249 397 q 234 397 217.5 391 q 201 385 186 373.5 q 171 362 161.5 344 q 152 326 152 302 l 152 302 l 152 34 q 152 20 149 10 q 146 0 136.5 -5 q 127 -10 107 -10"},"s":{"x_min":46.8,"x_max":414,"ha":459,"o":"m 224 -15 l 224 -15 q 200 -15 174 -10 q 148 -5 123.5 4.5 q 99 14 80.5 27 q 62 40 53 56 l 53 56 q 48 66 47 74.5 q 46 83 50 91 q 54 99 62 107 l 62 107 q 72 119 82 118.5 q 92 118 107 105 l 107 105 q 118 98 133 89.5 q 148 81 164 74.5 q 180 68 196.5 63.5 q 213 59 229 59 l 229 59 q 275 59 303 76.5 q 331 94 331 123 l 331 123 q 331 140 324 152 q 317 164 305 172.5 q 293 181 278 187 q 263 193 244.5 198.5 q 226 204 208 209 l 208 209 q 181 216 155 225 q 129 234 108 248.5 q 87 263 74 285.5 q 61 308 61 343 l 61 343 q 61 384 82 414 q 103 444 141 460.5 q 179 477 230 477 l 230 477 q 252 477 271 474 q 290 471 307.5 464.5 q 325 458 341 449.5 q 357 441 372 429 l 372 429 q 390 417 391 403 q 392 389 380 374 l 380 374 q 371 361 360 357.5 q 349 354 338 363 l 338 363 q 322 375 304 384 q 286 393 267 399 q 248 405 228 405 l 228 405 q 203 405 183.5 397.5 q 164 390 153.5 375.5 q 143 361 143 343 l 143 343 q 143 327 151.5 317 q 160 307 173.5 300 q 187 293 205.5 287.5 q 224 282 244 277 l 244 277 q 273 270 303.5 260.5 q 334 251 358.5 235.5 q 383 220 398.5 194.5 q 414 169 414 127 l 414 127 q 414 61 362 23 q 310 -15 224 -15"},"t":{"x_min":29,"x_max":347,"ha":376,"o":"m 291 -10 l 291 -10 q 244 -10 211.5 -1 q 179 8 158 27 q 137 46 128 76.5 q 119 107 119 152 l 119 152 l 119 379 l 65 378 q 44 378 36.5 388 q 29 398 29 421 l 29 421 q 29 443 38 453 q 47 463 67 463 l 67 463 l 119 462 l 119 594 q 119 608 122 618 q 125 628 134 633.5 q 143 639 162 639 q 181 639 191 633.5 q 201 628 204 618.5 q 207 609 207 595 l 207 595 l 207 463 l 302 464 q 316 464 326 461.5 q 336 459 341.5 449.5 q 347 440 347 421 q 347 402 342 392.5 q 337 383 327 380 q 317 377 303 377 l 303 377 l 207 378 l 207 152 q 207 126 211.5 110.5 q 216 95 225.5 87 q 235 79 251 77 q 267 75 290 75 l 290 75 q 306 75 316 72 q 326 69 331 60 q 336 51 336 33 l 336 33 q 336 14 330.5 4.5 q 325 -5 314.5 -7.5 q 304 -10 291 -10"},"u":{"x_min":49,"x_max":486,"ha":543,"o":"m 255 -11 l 255 -11 q 211 -11 173.5 5 q 136 21 108 50 q 80 79 64.5 120 q 49 161 49 213 l 49 213 l 49 430 q 49 444 52 454 q 55 464 64.5 469.5 q 74 475 93 475 l 93 475 q 112 475 121.5 469 q 131 463 134 453 q 137 443 137 429 l 137 429 l 137 212 q 137 171 151 139.5 q 165 108 193.5 91 q 222 74 263 74 l 263 74 q 305 74 335.5 91 q 366 108 382.5 139.5 q 399 171 399 212 l 399 212 l 399 430 q 399 444 402 454 q 405 464 414.5 469.5 q 424 475 443 475 l 443 475 q 462 475 471.5 469 q 481 463 483.5 453 q 486 443 486 429 l 486 429 l 486 32 q 486 20 483.5 10.5 q 481 1 471.5 -4 q 462 -9 443 -9 l 443 -9 q 429 -9 420.5 -6 q 412 -3 408 2 q 404 7 402.5 13.5 q 401 20 401 27 l 401 27 l 405 70 q 395 58 381 44 q 367 30 348.5 17.5 q 330 5 307 -3 q 284 -11 255 -11"},"v":{"x_min":30.88,"x_max":506,"ha":537,"o":"m 268 -12 l 268 -12 q 251 -12 240.5 -7 q 230 -2 223 11 l 223 11 l 38 414 q 27 438 33 450.5 q 39 463 61 474 l 61 474 q 81 484 95 480.5 q 109 477 119 454 l 119 454 l 268 99 l 414 444 q 425 467 438 477 q 451 487 479 473 l 479 473 q 506 460 506 443.5 q 506 427 497 408 l 497 408 l 313 12 q 308 0 297 -6 q 286 -12 268 -12"},"w":{"x_min":28.45,"x_max":736.88,"ha":763,"o":"m 231 -7 l 231 -7 q 216 -7 207.5 -2.5 q 199 2 194.5 9.5 q 190 17 188 26 l 188 26 l 33 420 q 28 435 28.5 445 q 29 455 36.5 462 q 44 469 59 474 l 59 474 q 83 483 96 478.5 q 109 474 117 452 l 117 452 l 231 148 l 337 445 q 340 453 344.5 460.5 q 349 468 358 473 q 367 478 381 478 l 381 478 q 397 478 405.5 473 q 414 468 419.5 461 q 425 454 427 446 l 427 446 l 532 146 l 646 447 q 655 471 668.5 478 q 682 485 706 476 l 706 476 q 727 469 734 456 q 741 443 731 419 l 731 419 l 576 25 q 573 17 568.5 9.5 q 564 2 555.5 -2.5 q 547 -7 533 -7 l 533 -7 q 519 -7 511 -3 q 503 1 498 9.5 q 493 18 489 28 l 489 28 l 382 336 l 274 28 q 270 16 265.5 8 q 261 0 253 -3.5 q 245 -7 231 -7"},"x":{"x_min":37.12,"x_max":457.78,"ha":494,"o":"m 436 467 l 436 467 q 450 456 455 446.5 q 460 437 456 425.5 q 452 414 438 398 l 438 398 l 303 232 l 437 67 q 451 51 455.5 40 q 460 29 455.5 19.5 q 451 10 437 -1 l 437 -1 q 425 -11 415.5 -14 q 406 -17 396 -11.5 q 386 -6 373 9 l 373 9 l 248 163 l 122 9 q 109 -6 99 -11.5 q 89 -17 79.5 -14 q 70 -11 57 -1 l 57 -1 q 44 10 39.5 19.5 q 35 29 39.5 40 q 44 51 57 67 l 57 67 l 191 233 l 57 398 q 43 414 39 425.5 q 35 437 39.5 446.5 q 44 456 59 467 l 59 467 q 72 477 81.5 480 q 91 483 100 477 q 109 471 121 456 l 121 456 l 247 301 l 373 456 q 393 478 405 480.5 q 417 483 436 467"},"y":{"x_min":29.44,"x_max":501.41,"ha":526,"o":"m 170 -204 l 170 -204 q 146 -194 142 -181 q 138 -168 149 -145 l 149 -145 l 250 83 l 40 407 q 27 427 30 440.5 q 33 454 53 467 l 53 467 q 75 481 88.5 477.5 q 102 474 116 454 l 116 454 l 292 177 l 414 450 q 425 473 437.5 478.5 q 450 484 473 474 l 473 474 q 497 463 500.5 450 q 504 437 494 415 l 494 415 l 227 -183 q 217 -206 205 -210 q 193 -214 170 -204"},"z":{"x_min":37,"x_max":494,"ha":531,"o":"m 449 -10 l 81 -10 q 60 -10 48.5 1 q 37 12 37 33 l 37 33 q 37 44 40.5 52.5 q 44 61 52 68 l 52 68 l 346 386 l 105 386 q 91 386 81 388.5 q 71 391 65.5 401 q 60 411 60 430 l 60 430 q 60 450 65.5 459.5 q 71 469 81 471.5 q 91 474 105 474 l 105 474 l 437 474 q 459 474 470 463 q 481 452 481 432 l 481 432 q 481 422 478 414 q 475 406 470 401 l 470 401 l 176 79 l 450 79 q 464 79 474 75.5 q 484 72 489 62.5 q 494 53 494 33 l 494 33 q 494 14 488.5 4.5 q 483 -5 473 -7.5 q 463 -10 449 -10 l 449 -10"},"{":{"x_min":25,"x_max":315,"ha":374,"o":"m 273 -160 l 273 -160 q 240 -160 216.5 -152 q 193 -144 177.5 -126.5 q 162 -109 154.5 -82.5 q 147 -56 147 -19 l 147 -19 l 147 189 q 147 209 142 222.5 q 137 236 127 244 q 117 252 101 255.5 q 85 259 64 259 l 64 259 l 52 259 q 37 259 31 268.5 q 25 278 25 300 l 25 300 q 25 318 28.5 327 q 32 336 38 339 q 44 342 51 342 l 51 342 l 61 342 q 83 342 99 345.5 q 115 349 125.5 357 q 136 365 141 379 q 146 393 146 413 l 146 413 l 147 626 q 147 661 154.5 687 q 162 713 177.5 729.5 q 193 746 216.5 754 q 240 762 272 762 l 272 762 q 286 762 295.5 759.5 q 305 757 310 748 q 315 739 315 722 l 315 722 q 315 704 310 695.5 q 305 687 295.5 683.5 q 286 680 272 680 l 272 680 q 256 680 247 674 q 238 668 234 655 q 230 642 230 618 l 230 618 l 230 437 q 230 412 226 390 q 222 368 212.5 350 q 203 332 188.5 319 q 174 306 153 298 l 153 298 q 174 291 188.5 276.5 q 203 262 212.5 242 q 222 222 226 198.5 q 230 175 230 151 l 230 151 l 229 -29 q 229 -47 233 -58 q 237 -69 246.5 -74 q 256 -79 272 -79 l 272 -79 q 286 -79 295 -81.5 q 304 -84 309.5 -93 q 315 -102 315 -119 l 315 -119 q 315 -137 309.5 -146 q 304 -155 295 -157.5 q 286 -160 273 -160"},"|":{"x_min":70,"x_max":149,"ha":213,"o":"m 109 -208 l 109 -208 q 93 -208 84 -202.5 q 75 -197 72.5 -187 q 70 -177 70 -163 l 70 -163 l 70 653 q 70 667 72.5 677 q 75 687 84 692 q 93 697 110 697 l 110 697 q 128 697 136 691.5 q 144 686 146.5 676 q 149 666 149 652 l 149 652 l 149 -164 q 149 -178 146.5 -188 q 144 -198 135.5 -203 q 127 -208 109 -208"},"}":{"x_min":25,"x_max":315,"ha":374,"o":"m 67 -160 l 67 -160 q 55 -160 45.5 -157.5 q 36 -155 30.5 -146 q 25 -137 25 -119 l 25 -119 q 25 -102 30.5 -93 q 36 -84 45.5 -81.5 q 55 -79 68 -79 l 68 -79 q 85 -79 94.5 -74 q 104 -69 107.5 -58 q 111 -47 111 -29 l 111 -29 l 111 151 q 111 175 115 198.5 q 119 222 128 242 q 137 262 152 276.5 q 167 291 187 298 l 187 298 q 167 306 152 319 q 137 332 128 350 q 119 368 115 390 q 111 412 111 437 l 111 437 l 111 618 q 111 642 107 655 q 103 668 93.5 674 q 84 680 68 680 l 68 680 q 55 680 45.5 683.5 q 36 687 30.5 695.5 q 25 704 25 722 l 25 722 q 25 739 30.5 748 q 36 757 45.5 759.5 q 55 762 68 762 l 68 762 q 101 762 124.5 754 q 148 746 163 729.5 q 178 713 185.5 687 q 193 661 193 626 l 193 626 l 194 413 q 194 393 199 379 q 204 365 215 357 q 226 349 242 345.5 q 258 342 279 342 l 279 342 l 290 342 q 296 342 302 339 q 308 336 311.5 327 q 315 318 315 300 l 315 300 q 315 278 309 268.5 q 303 259 289 259 l 289 259 l 276 259 q 255 259 239.5 255.5 q 224 252 213.5 244 q 203 236 198 222.5 q 193 209 193 189 l 193 189 l 193 -19 q 193 -56 185.5 -82.5 q 178 -109 163 -126.5 q 148 -144 124 -152 q 100 -160 67 -160"},"~":{"x_min":49.67,"x_max":503,"ha":552,"o":"m 196 349 l 196 349 q 220 349 239 341.5 q 258 334 274.5 323.5 q 291 313 305.5 302 q 320 291 334 283.5 q 348 276 362 276 l 362 276 q 373 276 382.5 282 q 392 288 401 297 q 410 306 419 315.5 q 428 325 436 333 l 436 333 q 443 341 456 342.5 q 469 344 481 336 l 481 336 q 493 329 498 320.5 q 503 312 503 300 l 503 300 q 503 284 490.5 264.5 q 478 245 457.5 228.5 q 437 212 411.5 201 q 386 190 360 190 l 360 190 q 334 190 314.5 197 q 295 204 279.5 215 q 264 226 250.5 236.5 q 237 247 223.5 254.5 q 210 262 194 262 l 194 262 q 183 262 172 256.5 q 161 251 151.5 242.5 q 142 234 133 225 q 124 216 115 209 l 115 209 q 110 204 103.5 202.5 q 97 201 88.5 203 q 80 205 72 210 l 72 210 q 55 221 51 234 q 47 247 55 262 l 55 262 q 62 276 75.5 291 q 89 306 108 319 q 127 332 149 340.5 q 171 349 196 349"}}}
